<mxfile host="app.diagrams.net" modified="2021-03-25T04:12:10.842Z" agent="5.0 (Windows NT 10.0; Win64; x64) AppleWebKit/537.36 (KHTML, like Gecko) Chrome/89.0.4389.90 Safari/537.36" etag="u3dPV81faLFnx7pnKcCC" version="14.5.1" type="github">
  <diagram id="R2lEEEUBdFMjLlhIrx00" name="Page-1">
    <mxGraphModel dx="2753" dy="970" grid="1" gridSize="10" guides="1" tooltips="1" connect="1" arrows="1" fold="1" page="1" pageScale="1" pageWidth="850" pageHeight="1100" math="0" shadow="0" extFonts="Permanent Marker^https://fonts.googleapis.com/css?family=Permanent+Marker">
      <root>
        <mxCell id="0" />
        <mxCell id="1" parent="0" />
        <mxCell id="hMKmBgIzzNZ2vL4rIoQF-65" value="WellnessPlanBenefit" style="shape=table;html=1;whiteSpace=wrap;startSize=30;container=1;collapsible=0;childLayout=tableLayout;fixedRows=1;rowLines=0;fontStyle=1;align=center;" parent="1" vertex="1">
          <mxGeometry x="-140" y="40" width="180" height="360" as="geometry" />
        </mxCell>
        <mxCell id="hMKmBgIzzNZ2vL4rIoQF-66" value="" style="shape=partialRectangle;html=1;whiteSpace=wrap;collapsible=0;dropTarget=0;pointerEvents=0;fillColor=none;top=0;left=0;bottom=1;right=0;points=[[0,0.5],[1,0.5]];portConstraint=eastwest;" parent="hMKmBgIzzNZ2vL4rIoQF-65" vertex="1">
          <mxGeometry y="30" width="180" height="30" as="geometry" />
        </mxCell>
        <mxCell id="hMKmBgIzzNZ2vL4rIoQF-67" value="" style="shape=partialRectangle;html=1;whiteSpace=wrap;connectable=0;fillColor=none;top=0;left=0;bottom=0;right=0;overflow=hidden;" parent="hMKmBgIzzNZ2vL4rIoQF-66" vertex="1">
          <mxGeometry width="40" height="30" as="geometry" />
        </mxCell>
        <mxCell id="hMKmBgIzzNZ2vL4rIoQF-68" value="id" style="shape=partialRectangle;html=1;whiteSpace=wrap;connectable=0;fillColor=none;top=0;left=0;bottom=0;right=0;align=left;spacingLeft=6;overflow=hidden;" parent="hMKmBgIzzNZ2vL4rIoQF-66" vertex="1">
          <mxGeometry x="40" width="140" height="30" as="geometry" />
        </mxCell>
        <mxCell id="hMKmBgIzzNZ2vL4rIoQF-69" value="" style="shape=partialRectangle;html=1;whiteSpace=wrap;collapsible=0;dropTarget=0;pointerEvents=0;fillColor=none;top=0;left=0;bottom=0;right=0;points=[[0,0.5],[1,0.5]];portConstraint=eastwest;" parent="hMKmBgIzzNZ2vL4rIoQF-65" vertex="1">
          <mxGeometry y="60" width="180" height="30" as="geometry" />
        </mxCell>
        <mxCell id="hMKmBgIzzNZ2vL4rIoQF-70" value="" style="shape=partialRectangle;html=1;whiteSpace=wrap;connectable=0;fillColor=none;top=0;left=0;bottom=0;right=0;overflow=hidden;" parent="hMKmBgIzzNZ2vL4rIoQF-69" vertex="1">
          <mxGeometry width="40" height="30" as="geometry" />
        </mxCell>
        <mxCell id="hMKmBgIzzNZ2vL4rIoQF-71" value="created_at" style="shape=partialRectangle;html=1;whiteSpace=wrap;connectable=0;fillColor=none;top=0;left=0;bottom=0;right=0;align=left;spacingLeft=6;overflow=hidden;" parent="hMKmBgIzzNZ2vL4rIoQF-69" vertex="1">
          <mxGeometry x="40" width="140" height="30" as="geometry" />
        </mxCell>
        <mxCell id="hMKmBgIzzNZ2vL4rIoQF-72" value="" style="shape=partialRectangle;html=1;whiteSpace=wrap;collapsible=0;dropTarget=0;pointerEvents=0;fillColor=none;top=0;left=0;bottom=0;right=0;points=[[0,0.5],[1,0.5]];portConstraint=eastwest;" parent="hMKmBgIzzNZ2vL4rIoQF-65" vertex="1">
          <mxGeometry y="90" width="180" height="30" as="geometry" />
        </mxCell>
        <mxCell id="hMKmBgIzzNZ2vL4rIoQF-73" value="" style="shape=partialRectangle;html=1;whiteSpace=wrap;connectable=0;fillColor=none;top=0;left=0;bottom=0;right=0;overflow=hidden;" parent="hMKmBgIzzNZ2vL4rIoQF-72" vertex="1">
          <mxGeometry width="40" height="30" as="geometry" />
        </mxCell>
        <mxCell id="hMKmBgIzzNZ2vL4rIoQF-74" value="modified_at" style="shape=partialRectangle;html=1;whiteSpace=wrap;connectable=0;fillColor=none;top=0;left=0;bottom=0;right=0;align=left;spacingLeft=6;overflow=hidden;" parent="hMKmBgIzzNZ2vL4rIoQF-72" vertex="1">
          <mxGeometry x="40" width="140" height="30" as="geometry" />
        </mxCell>
        <mxCell id="hMKmBgIzzNZ2vL4rIoQF-75" value="" style="shape=partialRectangle;html=1;whiteSpace=wrap;collapsible=0;dropTarget=0;pointerEvents=0;fillColor=none;top=0;left=0;bottom=0;right=0;points=[[0,0.5],[1,0.5]];portConstraint=eastwest;" parent="hMKmBgIzzNZ2vL4rIoQF-65" vertex="1">
          <mxGeometry y="120" width="180" height="30" as="geometry" />
        </mxCell>
        <mxCell id="hMKmBgIzzNZ2vL4rIoQF-76" value="" style="shape=partialRectangle;html=1;whiteSpace=wrap;connectable=0;fillColor=none;top=0;left=0;bottom=0;right=0;overflow=hidden;" parent="hMKmBgIzzNZ2vL4rIoQF-75" vertex="1">
          <mxGeometry width="40" height="30" as="geometry" />
        </mxCell>
        <mxCell id="hMKmBgIzzNZ2vL4rIoQF-77" value="active" style="shape=partialRectangle;html=1;whiteSpace=wrap;connectable=0;fillColor=none;top=0;left=0;bottom=0;right=0;align=left;spacingLeft=6;overflow=hidden;" parent="hMKmBgIzzNZ2vL4rIoQF-75" vertex="1">
          <mxGeometry x="40" width="140" height="30" as="geometry" />
        </mxCell>
        <mxCell id="hMKmBgIzzNZ2vL4rIoQF-78" value="" style="shape=partialRectangle;html=1;whiteSpace=wrap;collapsible=0;dropTarget=0;pointerEvents=0;fillColor=none;top=0;left=0;bottom=0;right=0;points=[[0,0.5],[1,0.5]];portConstraint=eastwest;" parent="hMKmBgIzzNZ2vL4rIoQF-65" vertex="1">
          <mxGeometry y="150" width="180" height="30" as="geometry" />
        </mxCell>
        <mxCell id="hMKmBgIzzNZ2vL4rIoQF-79" value="" style="shape=partialRectangle;html=1;whiteSpace=wrap;connectable=0;fillColor=none;top=0;left=0;bottom=0;right=0;overflow=hidden;" parent="hMKmBgIzzNZ2vL4rIoQF-78" vertex="1">
          <mxGeometry width="40" height="30" as="geometry" />
        </mxCell>
        <mxCell id="hMKmBgIzzNZ2vL4rIoQF-80" value="name" style="shape=partialRectangle;html=1;whiteSpace=wrap;connectable=0;fillColor=none;top=0;left=0;bottom=0;right=0;align=left;spacingLeft=6;overflow=hidden;" parent="hMKmBgIzzNZ2vL4rIoQF-78" vertex="1">
          <mxGeometry x="40" width="140" height="30" as="geometry" />
        </mxCell>
        <mxCell id="hMKmBgIzzNZ2vL4rIoQF-81" value="" style="shape=partialRectangle;html=1;whiteSpace=wrap;collapsible=0;dropTarget=0;pointerEvents=0;fillColor=none;top=0;left=0;bottom=0;right=0;points=[[0,0.5],[1,0.5]];portConstraint=eastwest;" parent="hMKmBgIzzNZ2vL4rIoQF-65" vertex="1">
          <mxGeometry y="180" width="180" height="30" as="geometry" />
        </mxCell>
        <mxCell id="hMKmBgIzzNZ2vL4rIoQF-82" value="" style="shape=partialRectangle;html=1;whiteSpace=wrap;connectable=0;fillColor=none;top=0;left=0;bottom=0;right=0;overflow=hidden;" parent="hMKmBgIzzNZ2vL4rIoQF-81" vertex="1">
          <mxGeometry width="40" height="30" as="geometry" />
        </mxCell>
        <mxCell id="hMKmBgIzzNZ2vL4rIoQF-83" value="earn_method" style="shape=partialRectangle;html=1;whiteSpace=wrap;connectable=0;fillColor=none;top=0;left=0;bottom=0;right=0;align=left;spacingLeft=6;overflow=hidden;" parent="hMKmBgIzzNZ2vL4rIoQF-81" vertex="1">
          <mxGeometry x="40" width="140" height="30" as="geometry" />
        </mxCell>
        <mxCell id="hMKmBgIzzNZ2vL4rIoQF-84" value="" style="shape=partialRectangle;html=1;whiteSpace=wrap;collapsible=0;dropTarget=0;pointerEvents=0;fillColor=none;top=0;left=0;bottom=0;right=0;points=[[0,0.5],[1,0.5]];portConstraint=eastwest;" parent="hMKmBgIzzNZ2vL4rIoQF-65" vertex="1">
          <mxGeometry y="210" width="180" height="30" as="geometry" />
        </mxCell>
        <mxCell id="hMKmBgIzzNZ2vL4rIoQF-85" value="" style="shape=partialRectangle;html=1;whiteSpace=wrap;connectable=0;fillColor=none;top=0;left=0;bottom=0;right=0;overflow=hidden;" parent="hMKmBgIzzNZ2vL4rIoQF-84" vertex="1">
          <mxGeometry width="40" height="30" as="geometry" />
        </mxCell>
        <mxCell id="hMKmBgIzzNZ2vL4rIoQF-86" value="earn_amount" style="shape=partialRectangle;html=1;whiteSpace=wrap;connectable=0;fillColor=none;top=0;left=0;bottom=0;right=0;align=left;spacingLeft=6;overflow=hidden;" parent="hMKmBgIzzNZ2vL4rIoQF-84" vertex="1">
          <mxGeometry x="40" width="140" height="30" as="geometry" />
        </mxCell>
        <mxCell id="hMKmBgIzzNZ2vL4rIoQF-87" value="" style="shape=partialRectangle;html=1;whiteSpace=wrap;collapsible=0;dropTarget=0;pointerEvents=0;fillColor=none;top=0;left=0;bottom=0;right=0;points=[[0,0.5],[1,0.5]];portConstraint=eastwest;" parent="hMKmBgIzzNZ2vL4rIoQF-65" vertex="1">
          <mxGeometry y="240" width="180" height="30" as="geometry" />
        </mxCell>
        <mxCell id="hMKmBgIzzNZ2vL4rIoQF-88" value="" style="shape=partialRectangle;html=1;whiteSpace=wrap;connectable=0;fillColor=none;top=0;left=0;bottom=0;right=0;overflow=hidden;" parent="hMKmBgIzzNZ2vL4rIoQF-87" vertex="1">
          <mxGeometry width="40" height="30" as="geometry" />
        </mxCell>
        <mxCell id="hMKmBgIzzNZ2vL4rIoQF-89" value="optional" style="shape=partialRectangle;html=1;whiteSpace=wrap;connectable=0;fillColor=none;top=0;left=0;bottom=0;right=0;align=left;spacingLeft=6;overflow=hidden;" parent="hMKmBgIzzNZ2vL4rIoQF-87" vertex="1">
          <mxGeometry x="40" width="140" height="30" as="geometry" />
        </mxCell>
        <mxCell id="hMKmBgIzzNZ2vL4rIoQF-90" value="" style="shape=partialRectangle;html=1;whiteSpace=wrap;collapsible=0;dropTarget=0;pointerEvents=0;fillColor=none;top=0;left=0;bottom=0;right=0;points=[[0,0.5],[1,0.5]];portConstraint=eastwest;" parent="hMKmBgIzzNZ2vL4rIoQF-65" vertex="1">
          <mxGeometry y="270" width="180" height="30" as="geometry" />
        </mxCell>
        <mxCell id="hMKmBgIzzNZ2vL4rIoQF-91" value="" style="shape=partialRectangle;html=1;whiteSpace=wrap;connectable=0;fillColor=none;top=0;left=0;bottom=0;right=0;overflow=hidden;" parent="hMKmBgIzzNZ2vL4rIoQF-90" vertex="1">
          <mxGeometry width="40" height="30" as="geometry" />
        </mxCell>
        <mxCell id="hMKmBgIzzNZ2vL4rIoQF-92" value="benefit_type" style="shape=partialRectangle;html=1;whiteSpace=wrap;connectable=0;fillColor=none;top=0;left=0;bottom=0;right=0;align=left;spacingLeft=6;overflow=hidden;" parent="hMKmBgIzzNZ2vL4rIoQF-90" vertex="1">
          <mxGeometry x="40" width="140" height="30" as="geometry" />
        </mxCell>
        <mxCell id="hMKmBgIzzNZ2vL4rIoQF-178" value="" style="shape=partialRectangle;html=1;whiteSpace=wrap;collapsible=0;dropTarget=0;pointerEvents=0;fillColor=none;top=0;left=0;bottom=0;right=0;points=[[0,0.5],[1,0.5]];portConstraint=eastwest;" parent="hMKmBgIzzNZ2vL4rIoQF-65" vertex="1">
          <mxGeometry y="300" width="180" height="30" as="geometry" />
        </mxCell>
        <mxCell id="hMKmBgIzzNZ2vL4rIoQF-179" value="" style="shape=partialRectangle;html=1;whiteSpace=wrap;connectable=0;fillColor=none;top=0;left=0;bottom=0;right=0;overflow=hidden;" parent="hMKmBgIzzNZ2vL4rIoQF-178" vertex="1">
          <mxGeometry width="40" height="30" as="geometry" />
        </mxCell>
        <mxCell id="hMKmBgIzzNZ2vL4rIoQF-180" value="benefit_config" style="shape=partialRectangle;html=1;whiteSpace=wrap;connectable=0;fillColor=none;top=0;left=0;bottom=0;right=0;align=left;spacingLeft=6;overflow=hidden;" parent="hMKmBgIzzNZ2vL4rIoQF-178" vertex="1">
          <mxGeometry x="40" width="140" height="30" as="geometry" />
        </mxCell>
        <mxCell id="hMKmBgIzzNZ2vL4rIoQF-181" value="" style="shape=partialRectangle;html=1;whiteSpace=wrap;collapsible=0;dropTarget=0;pointerEvents=0;fillColor=none;top=0;left=0;bottom=0;right=0;points=[[0,0.5],[1,0.5]];portConstraint=eastwest;" parent="hMKmBgIzzNZ2vL4rIoQF-65" vertex="1">
          <mxGeometry y="330" width="180" height="30" as="geometry" />
        </mxCell>
        <mxCell id="hMKmBgIzzNZ2vL4rIoQF-182" value="" style="shape=partialRectangle;html=1;whiteSpace=wrap;connectable=0;fillColor=none;top=0;left=0;bottom=0;right=0;overflow=hidden;" parent="hMKmBgIzzNZ2vL4rIoQF-181" vertex="1">
          <mxGeometry width="40" height="30" as="geometry" />
        </mxCell>
        <mxCell id="hMKmBgIzzNZ2vL4rIoQF-183" value="wellnessplan_id" style="shape=partialRectangle;html=1;whiteSpace=wrap;connectable=0;fillColor=none;top=0;left=0;bottom=0;right=0;align=left;spacingLeft=6;overflow=hidden;" parent="hMKmBgIzzNZ2vL4rIoQF-181" vertex="1">
          <mxGeometry x="40" width="140" height="30" as="geometry" />
        </mxCell>
        <mxCell id="hMKmBgIzzNZ2vL4rIoQF-378" style="edgeStyle=orthogonalEdgeStyle;rounded=0;orthogonalLoop=1;jettySize=auto;html=1;exitX=1;exitY=0.5;exitDx=0;exitDy=0;" parent="hMKmBgIzzNZ2vL4rIoQF-65" source="hMKmBgIzzNZ2vL4rIoQF-69" target="hMKmBgIzzNZ2vL4rIoQF-69" edge="1">
          <mxGeometry relative="1" as="geometry" />
        </mxCell>
        <mxCell id="hMKmBgIzzNZ2vL4rIoQF-217" value="WellnessPlanMembership" style="shape=table;html=1;whiteSpace=wrap;startSize=30;container=1;collapsible=0;childLayout=tableLayout;fixedRows=1;rowLines=0;fontStyle=1;align=center;" parent="1" vertex="1">
          <mxGeometry x="-140" y="440" width="340" height="520" as="geometry" />
        </mxCell>
        <mxCell id="hMKmBgIzzNZ2vL4rIoQF-218" value="" style="shape=partialRectangle;html=1;whiteSpace=wrap;collapsible=0;dropTarget=0;pointerEvents=0;fillColor=none;top=0;left=0;bottom=1;right=0;points=[[0,0.5],[1,0.5]];portConstraint=eastwest;" parent="hMKmBgIzzNZ2vL4rIoQF-217" vertex="1">
          <mxGeometry y="30" width="340" height="30" as="geometry" />
        </mxCell>
        <mxCell id="hMKmBgIzzNZ2vL4rIoQF-219" value="" style="shape=partialRectangle;html=1;whiteSpace=wrap;connectable=0;fillColor=none;top=0;left=0;bottom=0;right=0;overflow=hidden;" parent="hMKmBgIzzNZ2vL4rIoQF-218" vertex="1">
          <mxGeometry width="75" height="30" as="geometry" />
        </mxCell>
        <mxCell id="hMKmBgIzzNZ2vL4rIoQF-220" value="id" style="shape=partialRectangle;html=1;whiteSpace=wrap;connectable=0;fillColor=none;top=0;left=0;bottom=0;right=0;align=left;spacingLeft=6;overflow=hidden;" parent="hMKmBgIzzNZ2vL4rIoQF-218" vertex="1">
          <mxGeometry x="75" width="265" height="30" as="geometry" />
        </mxCell>
        <mxCell id="hMKmBgIzzNZ2vL4rIoQF-221" value="" style="shape=partialRectangle;html=1;whiteSpace=wrap;collapsible=0;dropTarget=0;pointerEvents=0;fillColor=none;top=0;left=0;bottom=0;right=0;points=[[0,0.5],[1,0.5]];portConstraint=eastwest;" parent="hMKmBgIzzNZ2vL4rIoQF-217" vertex="1">
          <mxGeometry y="60" width="340" height="30" as="geometry" />
        </mxCell>
        <mxCell id="hMKmBgIzzNZ2vL4rIoQF-222" value="" style="shape=partialRectangle;html=1;whiteSpace=wrap;connectable=0;fillColor=none;top=0;left=0;bottom=0;right=0;overflow=hidden;" parent="hMKmBgIzzNZ2vL4rIoQF-221" vertex="1">
          <mxGeometry width="75" height="30" as="geometry" />
        </mxCell>
        <mxCell id="hMKmBgIzzNZ2vL4rIoQF-223" value="created_at" style="shape=partialRectangle;html=1;whiteSpace=wrap;connectable=0;fillColor=none;top=0;left=0;bottom=0;right=0;align=left;spacingLeft=6;overflow=hidden;" parent="hMKmBgIzzNZ2vL4rIoQF-221" vertex="1">
          <mxGeometry x="75" width="265" height="30" as="geometry" />
        </mxCell>
        <mxCell id="hMKmBgIzzNZ2vL4rIoQF-224" value="" style="shape=partialRectangle;html=1;whiteSpace=wrap;collapsible=0;dropTarget=0;pointerEvents=0;fillColor=none;top=0;left=0;bottom=0;right=0;points=[[0,0.5],[1,0.5]];portConstraint=eastwest;" parent="hMKmBgIzzNZ2vL4rIoQF-217" vertex="1">
          <mxGeometry y="90" width="340" height="30" as="geometry" />
        </mxCell>
        <mxCell id="hMKmBgIzzNZ2vL4rIoQF-225" value="" style="shape=partialRectangle;html=1;whiteSpace=wrap;connectable=0;fillColor=none;top=0;left=0;bottom=0;right=0;overflow=hidden;" parent="hMKmBgIzzNZ2vL4rIoQF-224" vertex="1">
          <mxGeometry width="75" height="30" as="geometry" />
        </mxCell>
        <mxCell id="hMKmBgIzzNZ2vL4rIoQF-226" value="modified_at" style="shape=partialRectangle;html=1;whiteSpace=wrap;connectable=0;fillColor=none;top=0;left=0;bottom=0;right=0;align=left;spacingLeft=6;overflow=hidden;" parent="hMKmBgIzzNZ2vL4rIoQF-224" vertex="1">
          <mxGeometry x="75" width="265" height="30" as="geometry" />
        </mxCell>
        <mxCell id="hMKmBgIzzNZ2vL4rIoQF-227" value="" style="shape=partialRectangle;html=1;whiteSpace=wrap;collapsible=0;dropTarget=0;pointerEvents=0;fillColor=none;top=0;left=0;bottom=0;right=0;points=[[0,0.5],[1,0.5]];portConstraint=eastwest;" parent="hMKmBgIzzNZ2vL4rIoQF-217" vertex="1">
          <mxGeometry y="120" width="340" height="30" as="geometry" />
        </mxCell>
        <mxCell id="hMKmBgIzzNZ2vL4rIoQF-228" value="" style="shape=partialRectangle;html=1;whiteSpace=wrap;connectable=0;fillColor=none;top=0;left=0;bottom=0;right=0;overflow=hidden;" parent="hMKmBgIzzNZ2vL4rIoQF-227" vertex="1">
          <mxGeometry width="75" height="30" as="geometry" />
        </mxCell>
        <mxCell id="hMKmBgIzzNZ2vL4rIoQF-229" value="active" style="shape=partialRectangle;html=1;whiteSpace=wrap;connectable=0;fillColor=none;top=0;left=0;bottom=0;right=0;align=left;spacingLeft=6;overflow=hidden;" parent="hMKmBgIzzNZ2vL4rIoQF-227" vertex="1">
          <mxGeometry x="75" width="265" height="30" as="geometry" />
        </mxCell>
        <mxCell id="hMKmBgIzzNZ2vL4rIoQF-230" value="" style="shape=partialRectangle;html=1;whiteSpace=wrap;collapsible=0;dropTarget=0;pointerEvents=0;fillColor=none;top=0;left=0;bottom=0;right=0;points=[[0,0.5],[1,0.5]];portConstraint=eastwest;" parent="hMKmBgIzzNZ2vL4rIoQF-217" vertex="1">
          <mxGeometry y="150" width="340" height="30" as="geometry" />
        </mxCell>
        <mxCell id="hMKmBgIzzNZ2vL4rIoQF-231" value="" style="shape=partialRectangle;html=1;whiteSpace=wrap;connectable=0;fillColor=none;top=0;left=0;bottom=0;right=0;overflow=hidden;" parent="hMKmBgIzzNZ2vL4rIoQF-230" vertex="1">
          <mxGeometry width="75" height="30" as="geometry" />
        </mxCell>
        <mxCell id="hMKmBgIzzNZ2vL4rIoQF-232" value="wellness_plan" style="shape=partialRectangle;html=1;whiteSpace=wrap;connectable=0;fillColor=none;top=0;left=0;bottom=0;right=0;align=left;spacingLeft=6;overflow=hidden;" parent="hMKmBgIzzNZ2vL4rIoQF-230" vertex="1">
          <mxGeometry x="75" width="265" height="30" as="geometry" />
        </mxCell>
        <mxCell id="hMKmBgIzzNZ2vL4rIoQF-233" value="" style="shape=partialRectangle;html=1;whiteSpace=wrap;collapsible=0;dropTarget=0;pointerEvents=0;fillColor=none;top=0;left=0;bottom=0;right=0;points=[[0,0.5],[1,0.5]];portConstraint=eastwest;" parent="hMKmBgIzzNZ2vL4rIoQF-217" vertex="1">
          <mxGeometry y="180" width="340" height="30" as="geometry" />
        </mxCell>
        <mxCell id="hMKmBgIzzNZ2vL4rIoQF-234" value="" style="shape=partialRectangle;html=1;whiteSpace=wrap;connectable=0;fillColor=none;top=0;left=0;bottom=0;right=0;overflow=hidden;" parent="hMKmBgIzzNZ2vL4rIoQF-233" vertex="1">
          <mxGeometry width="75" height="30" as="geometry" />
        </mxCell>
        <mxCell id="hMKmBgIzzNZ2vL4rIoQF-235" value="animal_id" style="shape=partialRectangle;html=1;whiteSpace=wrap;connectable=0;fillColor=none;top=0;left=0;bottom=0;right=0;align=left;spacingLeft=6;overflow=hidden;" parent="hMKmBgIzzNZ2vL4rIoQF-233" vertex="1">
          <mxGeometry x="75" width="265" height="30" as="geometry" />
        </mxCell>
        <mxCell id="hMKmBgIzzNZ2vL4rIoQF-236" value="" style="shape=partialRectangle;html=1;whiteSpace=wrap;collapsible=0;dropTarget=0;pointerEvents=0;fillColor=none;top=0;left=0;bottom=0;right=0;points=[[0,0.5],[1,0.5]];portConstraint=eastwest;" parent="hMKmBgIzzNZ2vL4rIoQF-217" vertex="1">
          <mxGeometry y="210" width="340" height="30" as="geometry" />
        </mxCell>
        <mxCell id="hMKmBgIzzNZ2vL4rIoQF-237" value="" style="shape=partialRectangle;html=1;whiteSpace=wrap;connectable=0;fillColor=none;top=0;left=0;bottom=0;right=0;overflow=hidden;" parent="hMKmBgIzzNZ2vL4rIoQF-236" vertex="1">
          <mxGeometry width="75" height="30" as="geometry" />
        </mxCell>
        <mxCell id="hMKmBgIzzNZ2vL4rIoQF-238" value="renew_when_exprired" style="shape=partialRectangle;html=1;whiteSpace=wrap;connectable=0;fillColor=none;top=0;left=0;bottom=0;right=0;align=left;spacingLeft=6;overflow=hidden;" parent="hMKmBgIzzNZ2vL4rIoQF-236" vertex="1">
          <mxGeometry x="75" width="265" height="30" as="geometry" />
        </mxCell>
        <mxCell id="hMKmBgIzzNZ2vL4rIoQF-239" value="" style="shape=partialRectangle;html=1;whiteSpace=wrap;collapsible=0;dropTarget=0;pointerEvents=0;fillColor=none;top=0;left=0;bottom=0;right=0;points=[[0,0.5],[1,0.5]];portConstraint=eastwest;" parent="hMKmBgIzzNZ2vL4rIoQF-217" vertex="1">
          <mxGeometry y="240" width="340" height="30" as="geometry" />
        </mxCell>
        <mxCell id="hMKmBgIzzNZ2vL4rIoQF-240" value="" style="shape=partialRectangle;html=1;whiteSpace=wrap;connectable=0;fillColor=none;top=0;left=0;bottom=0;right=0;overflow=hidden;" parent="hMKmBgIzzNZ2vL4rIoQF-239" vertex="1">
          <mxGeometry width="75" height="30" as="geometry" />
        </mxCell>
        <mxCell id="hMKmBgIzzNZ2vL4rIoQF-241" value="start_date" style="shape=partialRectangle;html=1;whiteSpace=wrap;connectable=0;fillColor=none;top=0;left=0;bottom=0;right=0;align=left;spacingLeft=6;overflow=hidden;" parent="hMKmBgIzzNZ2vL4rIoQF-239" vertex="1">
          <mxGeometry x="75" width="265" height="30" as="geometry" />
        </mxCell>
        <mxCell id="hMKmBgIzzNZ2vL4rIoQF-242" value="" style="shape=partialRectangle;html=1;whiteSpace=wrap;collapsible=0;dropTarget=0;pointerEvents=0;fillColor=none;top=0;left=0;bottom=0;right=0;points=[[0,0.5],[1,0.5]];portConstraint=eastwest;" parent="hMKmBgIzzNZ2vL4rIoQF-217" vertex="1">
          <mxGeometry y="270" width="340" height="30" as="geometry" />
        </mxCell>
        <mxCell id="hMKmBgIzzNZ2vL4rIoQF-243" value="" style="shape=partialRectangle;html=1;whiteSpace=wrap;connectable=0;fillColor=none;top=0;left=0;bottom=0;right=0;overflow=hidden;" parent="hMKmBgIzzNZ2vL4rIoQF-242" vertex="1">
          <mxGeometry width="75" height="30" as="geometry" />
        </mxCell>
        <mxCell id="hMKmBgIzzNZ2vL4rIoQF-244" value="end_date" style="shape=partialRectangle;html=1;whiteSpace=wrap;connectable=0;fillColor=none;top=0;left=0;bottom=0;right=0;align=left;spacingLeft=6;overflow=hidden;" parent="hMKmBgIzzNZ2vL4rIoQF-242" vertex="1">
          <mxGeometry x="75" width="265" height="30" as="geometry" />
        </mxCell>
        <mxCell id="hMKmBgIzzNZ2vL4rIoQF-245" value="" style="shape=partialRectangle;html=1;whiteSpace=wrap;collapsible=0;dropTarget=0;pointerEvents=0;fillColor=none;top=0;left=0;bottom=0;right=0;points=[[0,0.5],[1,0.5]];portConstraint=eastwest;" parent="hMKmBgIzzNZ2vL4rIoQF-217" vertex="1">
          <mxGeometry y="300" width="340" height="30" as="geometry" />
        </mxCell>
        <mxCell id="hMKmBgIzzNZ2vL4rIoQF-246" value="" style="shape=partialRectangle;html=1;whiteSpace=wrap;connectable=0;fillColor=none;top=0;left=0;bottom=0;right=0;overflow=hidden;" parent="hMKmBgIzzNZ2vL4rIoQF-245" vertex="1">
          <mxGeometry width="75" height="30" as="geometry" />
        </mxCell>
        <mxCell id="hMKmBgIzzNZ2vL4rIoQF-247" value="status" style="shape=partialRectangle;html=1;whiteSpace=wrap;connectable=0;fillColor=none;top=0;left=0;bottom=0;right=0;align=left;spacingLeft=6;overflow=hidden;" parent="hMKmBgIzzNZ2vL4rIoQF-245" vertex="1">
          <mxGeometry x="75" width="265" height="30" as="geometry" />
        </mxCell>
        <mxCell id="hMKmBgIzzNZ2vL4rIoQF-248" value="" style="shape=partialRectangle;html=1;whiteSpace=wrap;collapsible=0;dropTarget=0;pointerEvents=0;fillColor=none;top=0;left=0;bottom=0;right=0;points=[[0,0.5],[1,0.5]];portConstraint=eastwest;" parent="hMKmBgIzzNZ2vL4rIoQF-217" vertex="1">
          <mxGeometry y="330" width="340" height="30" as="geometry" />
        </mxCell>
        <mxCell id="hMKmBgIzzNZ2vL4rIoQF-249" value="" style="shape=partialRectangle;html=1;whiteSpace=wrap;connectable=0;fillColor=none;top=0;left=0;bottom=0;right=0;overflow=hidden;" parent="hMKmBgIzzNZ2vL4rIoQF-248" vertex="1">
          <mxGeometry width="75" height="30" as="geometry" />
        </mxCell>
        <mxCell id="hMKmBgIzzNZ2vL4rIoQF-250" value="billing_interval" style="shape=partialRectangle;html=1;whiteSpace=wrap;connectable=0;fillColor=none;top=0;left=0;bottom=0;right=0;align=left;spacingLeft=6;overflow=hidden;" parent="hMKmBgIzzNZ2vL4rIoQF-248" vertex="1">
          <mxGeometry x="75" width="265" height="30" as="geometry" />
        </mxCell>
        <mxCell id="hMKmBgIzzNZ2vL4rIoQF-253" value="" style="shape=partialRectangle;html=1;whiteSpace=wrap;collapsible=0;dropTarget=0;pointerEvents=0;fillColor=none;top=0;left=0;bottom=0;right=0;points=[[0,0.5],[1,0.5]];portConstraint=eastwest;" parent="hMKmBgIzzNZ2vL4rIoQF-217" vertex="1">
          <mxGeometry y="360" width="340" height="30" as="geometry" />
        </mxCell>
        <mxCell id="hMKmBgIzzNZ2vL4rIoQF-254" value="" style="shape=partialRectangle;html=1;whiteSpace=wrap;connectable=0;fillColor=none;top=0;left=0;bottom=0;right=0;overflow=hidden;" parent="hMKmBgIzzNZ2vL4rIoQF-253" vertex="1">
          <mxGeometry width="75" height="30" as="geometry" />
        </mxCell>
        <mxCell id="hMKmBgIzzNZ2vL4rIoQF-255" value="resource_id" style="shape=partialRectangle;html=1;whiteSpace=wrap;connectable=0;fillColor=none;top=0;left=0;bottom=0;right=0;align=left;spacingLeft=6;overflow=hidden;" parent="hMKmBgIzzNZ2vL4rIoQF-253" vertex="1">
          <mxGeometry x="75" width="265" height="30" as="geometry" />
        </mxCell>
        <mxCell id="hMKmBgIzzNZ2vL4rIoQF-256" value="" style="shape=partialRectangle;html=1;whiteSpace=wrap;collapsible=0;dropTarget=0;pointerEvents=0;fillColor=none;top=0;left=0;bottom=0;right=0;points=[[0,0.5],[1,0.5]];portConstraint=eastwest;" parent="hMKmBgIzzNZ2vL4rIoQF-217" vertex="1">
          <mxGeometry y="390" width="340" height="30" as="geometry" />
        </mxCell>
        <mxCell id="hMKmBgIzzNZ2vL4rIoQF-257" value="" style="shape=partialRectangle;html=1;whiteSpace=wrap;connectable=0;fillColor=none;top=0;left=0;bottom=0;right=0;overflow=hidden;" parent="hMKmBgIzzNZ2vL4rIoQF-256" vertex="1">
          <mxGeometry width="75" height="30" as="geometry" />
        </mxCell>
        <mxCell id="hMKmBgIzzNZ2vL4rIoQF-258" value="previous_wellness_plan_membership" style="shape=partialRectangle;html=1;whiteSpace=wrap;connectable=0;fillColor=none;top=0;left=0;bottom=0;right=0;align=left;spacingLeft=6;overflow=hidden;" parent="hMKmBgIzzNZ2vL4rIoQF-256" vertex="1">
          <mxGeometry x="75" width="265" height="30" as="geometry" />
        </mxCell>
        <mxCell id="hMKmBgIzzNZ2vL4rIoQF-259" value="" style="shape=partialRectangle;html=1;whiteSpace=wrap;collapsible=0;dropTarget=0;pointerEvents=0;fillColor=none;top=0;left=0;bottom=0;right=0;points=[[0,0.5],[1,0.5]];portConstraint=eastwest;" parent="hMKmBgIzzNZ2vL4rIoQF-217" vertex="1">
          <mxGeometry y="420" width="340" height="30" as="geometry" />
        </mxCell>
        <mxCell id="hMKmBgIzzNZ2vL4rIoQF-260" value="" style="shape=partialRectangle;html=1;whiteSpace=wrap;connectable=0;fillColor=none;top=0;left=0;bottom=0;right=0;overflow=hidden;" parent="hMKmBgIzzNZ2vL4rIoQF-259" vertex="1">
          <mxGeometry width="75" height="30" as="geometry" />
        </mxCell>
        <mxCell id="hMKmBgIzzNZ2vL4rIoQF-261" value="next_wellness_plan" style="shape=partialRectangle;html=1;whiteSpace=wrap;connectable=0;fillColor=none;top=0;left=0;bottom=0;right=0;align=left;spacingLeft=6;overflow=hidden;" parent="hMKmBgIzzNZ2vL4rIoQF-259" vertex="1">
          <mxGeometry x="75" width="265" height="30" as="geometry" />
        </mxCell>
        <mxCell id="hMKmBgIzzNZ2vL4rIoQF-262" value="" style="shape=partialRectangle;html=1;whiteSpace=wrap;collapsible=0;dropTarget=0;pointerEvents=0;fillColor=none;top=0;left=0;bottom=0;right=0;points=[[0,0.5],[1,0.5]];portConstraint=eastwest;" parent="hMKmBgIzzNZ2vL4rIoQF-217" vertex="1">
          <mxGeometry y="450" width="340" height="30" as="geometry" />
        </mxCell>
        <mxCell id="hMKmBgIzzNZ2vL4rIoQF-263" value="" style="shape=partialRectangle;html=1;whiteSpace=wrap;connectable=0;fillColor=none;top=0;left=0;bottom=0;right=0;overflow=hidden;" parent="hMKmBgIzzNZ2vL4rIoQF-262" vertex="1">
          <mxGeometry width="75" height="30" as="geometry" />
        </mxCell>
        <mxCell id="hMKmBgIzzNZ2vL4rIoQF-264" value="reference" style="shape=partialRectangle;html=1;whiteSpace=wrap;connectable=0;fillColor=none;top=0;left=0;bottom=0;right=0;align=left;spacingLeft=6;overflow=hidden;" parent="hMKmBgIzzNZ2vL4rIoQF-262" vertex="1">
          <mxGeometry x="75" width="265" height="30" as="geometry" />
        </mxCell>
        <mxCell id="hMKmBgIzzNZ2vL4rIoQF-265" value="" style="shape=partialRectangle;html=1;whiteSpace=wrap;collapsible=0;dropTarget=0;pointerEvents=0;fillColor=none;top=0;left=0;bottom=0;right=0;points=[[0,0.5],[1,0.5]];portConstraint=eastwest;" parent="hMKmBgIzzNZ2vL4rIoQF-217" vertex="1">
          <mxGeometry y="480" width="340" height="30" as="geometry" />
        </mxCell>
        <mxCell id="hMKmBgIzzNZ2vL4rIoQF-266" value="" style="shape=partialRectangle;html=1;whiteSpace=wrap;connectable=0;fillColor=none;top=0;left=0;bottom=0;right=0;overflow=hidden;" parent="hMKmBgIzzNZ2vL4rIoQF-265" vertex="1">
          <mxGeometry width="75" height="30" as="geometry" />
        </mxCell>
        <mxCell id="hMKmBgIzzNZ2vL4rIoQF-267" value="owership_id" style="shape=partialRectangle;html=1;whiteSpace=wrap;connectable=0;fillColor=none;top=0;left=0;bottom=0;right=0;align=left;spacingLeft=6;overflow=hidden;" parent="hMKmBgIzzNZ2vL4rIoQF-265" vertex="1">
          <mxGeometry x="75" width="265" height="30" as="geometry" />
        </mxCell>
        <mxCell id="hMKmBgIzzNZ2vL4rIoQF-268" value="Coupon" style="shape=table;html=1;whiteSpace=wrap;startSize=30;container=1;collapsible=0;childLayout=tableLayout;fixedRows=1;rowLines=0;fontStyle=1;align=center;" parent="1" vertex="1">
          <mxGeometry x="840" y="40" width="280" height="1000" as="geometry" />
        </mxCell>
        <mxCell id="hMKmBgIzzNZ2vL4rIoQF-269" value="" style="shape=partialRectangle;html=1;whiteSpace=wrap;collapsible=0;dropTarget=0;pointerEvents=0;fillColor=none;top=0;left=0;bottom=1;right=0;points=[[0,0.5],[1,0.5]];portConstraint=eastwest;" parent="hMKmBgIzzNZ2vL4rIoQF-268" vertex="1">
          <mxGeometry y="30" width="280" height="30" as="geometry" />
        </mxCell>
        <mxCell id="hMKmBgIzzNZ2vL4rIoQF-270" value="" style="shape=partialRectangle;html=1;whiteSpace=wrap;connectable=0;fillColor=none;top=0;left=0;bottom=0;right=0;overflow=hidden;" parent="hMKmBgIzzNZ2vL4rIoQF-269" vertex="1">
          <mxGeometry width="61" height="30" as="geometry" />
        </mxCell>
        <mxCell id="hMKmBgIzzNZ2vL4rIoQF-271" value="id" style="shape=partialRectangle;html=1;whiteSpace=wrap;connectable=0;fillColor=none;top=0;left=0;bottom=0;right=0;align=left;spacingLeft=6;overflow=hidden;" parent="hMKmBgIzzNZ2vL4rIoQF-269" vertex="1">
          <mxGeometry x="61" width="219" height="30" as="geometry" />
        </mxCell>
        <mxCell id="hMKmBgIzzNZ2vL4rIoQF-272" value="" style="shape=partialRectangle;html=1;whiteSpace=wrap;collapsible=0;dropTarget=0;pointerEvents=0;fillColor=none;top=0;left=0;bottom=0;right=0;points=[[0,0.5],[1,0.5]];portConstraint=eastwest;" parent="hMKmBgIzzNZ2vL4rIoQF-268" vertex="1">
          <mxGeometry y="60" width="280" height="30" as="geometry" />
        </mxCell>
        <mxCell id="hMKmBgIzzNZ2vL4rIoQF-273" value="" style="shape=partialRectangle;html=1;whiteSpace=wrap;connectable=0;fillColor=none;top=0;left=0;bottom=0;right=0;overflow=hidden;" parent="hMKmBgIzzNZ2vL4rIoQF-272" vertex="1">
          <mxGeometry width="61" height="30" as="geometry" />
        </mxCell>
        <mxCell id="hMKmBgIzzNZ2vL4rIoQF-274" value="object" style="shape=partialRectangle;html=1;whiteSpace=wrap;connectable=0;fillColor=none;top=0;left=0;bottom=0;right=0;align=left;spacingLeft=6;overflow=hidden;" parent="hMKmBgIzzNZ2vL4rIoQF-272" vertex="1">
          <mxGeometry x="61" width="219" height="30" as="geometry" />
        </mxCell>
        <mxCell id="hMKmBgIzzNZ2vL4rIoQF-275" value="" style="shape=partialRectangle;html=1;whiteSpace=wrap;collapsible=0;dropTarget=0;pointerEvents=0;fillColor=none;top=0;left=0;bottom=0;right=0;points=[[0,0.5],[1,0.5]];portConstraint=eastwest;" parent="hMKmBgIzzNZ2vL4rIoQF-268" vertex="1">
          <mxGeometry y="90" width="280" height="30" as="geometry" />
        </mxCell>
        <mxCell id="hMKmBgIzzNZ2vL4rIoQF-276" value="" style="shape=partialRectangle;html=1;whiteSpace=wrap;connectable=0;fillColor=none;top=0;left=0;bottom=0;right=0;overflow=hidden;" parent="hMKmBgIzzNZ2vL4rIoQF-275" vertex="1">
          <mxGeometry width="61" height="30" as="geometry" />
        </mxCell>
        <mxCell id="hMKmBgIzzNZ2vL4rIoQF-277" value="code" style="shape=partialRectangle;html=1;whiteSpace=wrap;connectable=0;fillColor=none;top=0;left=0;bottom=0;right=0;align=left;spacingLeft=6;overflow=hidden;" parent="hMKmBgIzzNZ2vL4rIoQF-275" vertex="1">
          <mxGeometry x="61" width="219" height="30" as="geometry" />
        </mxCell>
        <mxCell id="hMKmBgIzzNZ2vL4rIoQF-278" value="" style="shape=partialRectangle;html=1;whiteSpace=wrap;collapsible=0;dropTarget=0;pointerEvents=0;fillColor=none;top=0;left=0;bottom=0;right=0;points=[[0,0.5],[1,0.5]];portConstraint=eastwest;" parent="hMKmBgIzzNZ2vL4rIoQF-268" vertex="1">
          <mxGeometry y="120" width="280" height="30" as="geometry" />
        </mxCell>
        <mxCell id="hMKmBgIzzNZ2vL4rIoQF-279" value="" style="shape=partialRectangle;html=1;whiteSpace=wrap;connectable=0;fillColor=none;top=0;left=0;bottom=0;right=0;overflow=hidden;" parent="hMKmBgIzzNZ2vL4rIoQF-278" vertex="1">
          <mxGeometry width="61" height="30" as="geometry" />
        </mxCell>
        <mxCell id="hMKmBgIzzNZ2vL4rIoQF-280" value="name" style="shape=partialRectangle;html=1;whiteSpace=wrap;connectable=0;fillColor=none;top=0;left=0;bottom=0;right=0;align=left;spacingLeft=6;overflow=hidden;" parent="hMKmBgIzzNZ2vL4rIoQF-278" vertex="1">
          <mxGeometry x="61" width="219" height="30" as="geometry" />
        </mxCell>
        <mxCell id="hMKmBgIzzNZ2vL4rIoQF-281" value="" style="shape=partialRectangle;html=1;whiteSpace=wrap;collapsible=0;dropTarget=0;pointerEvents=0;fillColor=none;top=0;left=0;bottom=0;right=0;points=[[0,0.5],[1,0.5]];portConstraint=eastwest;" parent="hMKmBgIzzNZ2vL4rIoQF-268" vertex="1">
          <mxGeometry y="150" width="280" height="30" as="geometry" />
        </mxCell>
        <mxCell id="hMKmBgIzzNZ2vL4rIoQF-282" value="" style="shape=partialRectangle;html=1;whiteSpace=wrap;connectable=0;fillColor=none;top=0;left=0;bottom=0;right=0;overflow=hidden;" parent="hMKmBgIzzNZ2vL4rIoQF-281" vertex="1">
          <mxGeometry width="61" height="30" as="geometry" />
        </mxCell>
        <mxCell id="hMKmBgIzzNZ2vL4rIoQF-283" value="state" style="shape=partialRectangle;html=1;whiteSpace=wrap;connectable=0;fillColor=none;top=0;left=0;bottom=0;right=0;align=left;spacingLeft=6;overflow=hidden;" parent="hMKmBgIzzNZ2vL4rIoQF-281" vertex="1">
          <mxGeometry x="61" width="219" height="30" as="geometry" />
        </mxCell>
        <mxCell id="hMKmBgIzzNZ2vL4rIoQF-284" value="" style="shape=partialRectangle;html=1;whiteSpace=wrap;collapsible=0;dropTarget=0;pointerEvents=0;fillColor=none;top=0;left=0;bottom=0;right=0;points=[[0,0.5],[1,0.5]];portConstraint=eastwest;" parent="hMKmBgIzzNZ2vL4rIoQF-268" vertex="1">
          <mxGeometry y="180" width="280" height="30" as="geometry" />
        </mxCell>
        <mxCell id="hMKmBgIzzNZ2vL4rIoQF-285" value="" style="shape=partialRectangle;html=1;whiteSpace=wrap;connectable=0;fillColor=none;top=0;left=0;bottom=0;right=0;overflow=hidden;" parent="hMKmBgIzzNZ2vL4rIoQF-284" vertex="1">
          <mxGeometry width="61" height="30" as="geometry" />
        </mxCell>
        <mxCell id="hMKmBgIzzNZ2vL4rIoQF-286" value="max_redemption" style="shape=partialRectangle;html=1;whiteSpace=wrap;connectable=0;fillColor=none;top=0;left=0;bottom=0;right=0;align=left;spacingLeft=6;overflow=hidden;" parent="hMKmBgIzzNZ2vL4rIoQF-284" vertex="1">
          <mxGeometry x="61" width="219" height="30" as="geometry" />
        </mxCell>
        <mxCell id="hMKmBgIzzNZ2vL4rIoQF-287" value="" style="shape=partialRectangle;html=1;whiteSpace=wrap;collapsible=0;dropTarget=0;pointerEvents=0;fillColor=none;top=0;left=0;bottom=0;right=0;points=[[0,0.5],[1,0.5]];portConstraint=eastwest;" parent="hMKmBgIzzNZ2vL4rIoQF-268" vertex="1">
          <mxGeometry y="210" width="280" height="30" as="geometry" />
        </mxCell>
        <mxCell id="hMKmBgIzzNZ2vL4rIoQF-288" value="" style="shape=partialRectangle;html=1;whiteSpace=wrap;connectable=0;fillColor=none;top=0;left=0;bottom=0;right=0;overflow=hidden;" parent="hMKmBgIzzNZ2vL4rIoQF-287" vertex="1">
          <mxGeometry width="61" height="30" as="geometry" />
        </mxCell>
        <mxCell id="hMKmBgIzzNZ2vL4rIoQF-289" value="max_redemptions_per_account" style="shape=partialRectangle;html=1;whiteSpace=wrap;connectable=0;fillColor=none;top=0;left=0;bottom=0;right=0;align=left;spacingLeft=6;overflow=hidden;" parent="hMKmBgIzzNZ2vL4rIoQF-287" vertex="1">
          <mxGeometry x="61" width="219" height="30" as="geometry" />
        </mxCell>
        <mxCell id="hMKmBgIzzNZ2vL4rIoQF-290" value="" style="shape=partialRectangle;html=1;whiteSpace=wrap;collapsible=0;dropTarget=0;pointerEvents=0;fillColor=none;top=0;left=0;bottom=0;right=0;points=[[0,0.5],[1,0.5]];portConstraint=eastwest;" parent="hMKmBgIzzNZ2vL4rIoQF-268" vertex="1">
          <mxGeometry y="240" width="280" height="30" as="geometry" />
        </mxCell>
        <mxCell id="hMKmBgIzzNZ2vL4rIoQF-291" value="" style="shape=partialRectangle;html=1;whiteSpace=wrap;connectable=0;fillColor=none;top=0;left=0;bottom=0;right=0;overflow=hidden;" parent="hMKmBgIzzNZ2vL4rIoQF-290" vertex="1">
          <mxGeometry width="61" height="30" as="geometry" />
        </mxCell>
        <mxCell id="hMKmBgIzzNZ2vL4rIoQF-292" value="unique_coupon_codes_count" style="shape=partialRectangle;html=1;whiteSpace=wrap;connectable=0;fillColor=none;top=0;left=0;bottom=0;right=0;align=left;spacingLeft=6;overflow=hidden;" parent="hMKmBgIzzNZ2vL4rIoQF-290" vertex="1">
          <mxGeometry x="61" width="219" height="30" as="geometry" />
        </mxCell>
        <mxCell id="hMKmBgIzzNZ2vL4rIoQF-293" value="" style="shape=partialRectangle;html=1;whiteSpace=wrap;collapsible=0;dropTarget=0;pointerEvents=0;fillColor=none;top=0;left=0;bottom=0;right=0;points=[[0,0.5],[1,0.5]];portConstraint=eastwest;" parent="hMKmBgIzzNZ2vL4rIoQF-268" vertex="1">
          <mxGeometry y="270" width="280" height="30" as="geometry" />
        </mxCell>
        <mxCell id="hMKmBgIzzNZ2vL4rIoQF-294" value="" style="shape=partialRectangle;html=1;whiteSpace=wrap;connectable=0;fillColor=none;top=0;left=0;bottom=0;right=0;overflow=hidden;" parent="hMKmBgIzzNZ2vL4rIoQF-293" vertex="1">
          <mxGeometry width="61" height="30" as="geometry" />
        </mxCell>
        <mxCell id="hMKmBgIzzNZ2vL4rIoQF-295" value="unique_code_template" style="shape=partialRectangle;html=1;whiteSpace=wrap;connectable=0;fillColor=none;top=0;left=0;bottom=0;right=0;align=left;spacingLeft=6;overflow=hidden;" parent="hMKmBgIzzNZ2vL4rIoQF-293" vertex="1">
          <mxGeometry x="61" width="219" height="30" as="geometry" />
        </mxCell>
        <mxCell id="hMKmBgIzzNZ2vL4rIoQF-296" value="" style="shape=partialRectangle;html=1;whiteSpace=wrap;collapsible=0;dropTarget=0;pointerEvents=0;fillColor=none;top=0;left=0;bottom=0;right=0;points=[[0,0.5],[1,0.5]];portConstraint=eastwest;" parent="hMKmBgIzzNZ2vL4rIoQF-268" vertex="1">
          <mxGeometry y="300" width="280" height="30" as="geometry" />
        </mxCell>
        <mxCell id="hMKmBgIzzNZ2vL4rIoQF-297" value="" style="shape=partialRectangle;html=1;whiteSpace=wrap;connectable=0;fillColor=none;top=0;left=0;bottom=0;right=0;overflow=hidden;" parent="hMKmBgIzzNZ2vL4rIoQF-296" vertex="1">
          <mxGeometry width="61" height="30" as="geometry" />
        </mxCell>
        <mxCell id="hMKmBgIzzNZ2vL4rIoQF-298" value="duration" style="shape=partialRectangle;html=1;whiteSpace=wrap;connectable=0;fillColor=none;top=0;left=0;bottom=0;right=0;align=left;spacingLeft=6;overflow=hidden;" parent="hMKmBgIzzNZ2vL4rIoQF-296" vertex="1">
          <mxGeometry x="61" width="219" height="30" as="geometry" />
        </mxCell>
        <mxCell id="hMKmBgIzzNZ2vL4rIoQF-299" value="" style="shape=partialRectangle;html=1;whiteSpace=wrap;collapsible=0;dropTarget=0;pointerEvents=0;fillColor=none;top=0;left=0;bottom=0;right=0;points=[[0,0.5],[1,0.5]];portConstraint=eastwest;" parent="hMKmBgIzzNZ2vL4rIoQF-268" vertex="1">
          <mxGeometry y="330" width="280" height="30" as="geometry" />
        </mxCell>
        <mxCell id="hMKmBgIzzNZ2vL4rIoQF-300" value="" style="shape=partialRectangle;html=1;whiteSpace=wrap;connectable=0;fillColor=none;top=0;left=0;bottom=0;right=0;overflow=hidden;" parent="hMKmBgIzzNZ2vL4rIoQF-299" vertex="1">
          <mxGeometry width="61" height="30" as="geometry" />
        </mxCell>
        <mxCell id="hMKmBgIzzNZ2vL4rIoQF-301" value="temporal_amount" style="shape=partialRectangle;html=1;whiteSpace=wrap;connectable=0;fillColor=none;top=0;left=0;bottom=0;right=0;align=left;spacingLeft=6;overflow=hidden;" parent="hMKmBgIzzNZ2vL4rIoQF-299" vertex="1">
          <mxGeometry x="61" width="219" height="30" as="geometry" />
        </mxCell>
        <mxCell id="hMKmBgIzzNZ2vL4rIoQF-302" value="" style="shape=partialRectangle;html=1;whiteSpace=wrap;collapsible=0;dropTarget=0;pointerEvents=0;fillColor=none;top=0;left=0;bottom=0;right=0;points=[[0,0.5],[1,0.5]];portConstraint=eastwest;" parent="hMKmBgIzzNZ2vL4rIoQF-268" vertex="1">
          <mxGeometry y="360" width="280" height="30" as="geometry" />
        </mxCell>
        <mxCell id="hMKmBgIzzNZ2vL4rIoQF-303" value="" style="shape=partialRectangle;html=1;whiteSpace=wrap;connectable=0;fillColor=none;top=0;left=0;bottom=0;right=0;overflow=hidden;" parent="hMKmBgIzzNZ2vL4rIoQF-302" vertex="1">
          <mxGeometry width="61" height="30" as="geometry" />
        </mxCell>
        <mxCell id="hMKmBgIzzNZ2vL4rIoQF-304" value="temporal_unit" style="shape=partialRectangle;html=1;whiteSpace=wrap;connectable=0;fillColor=none;top=0;left=0;bottom=0;right=0;align=left;spacingLeft=6;overflow=hidden;" parent="hMKmBgIzzNZ2vL4rIoQF-302" vertex="1">
          <mxGeometry x="61" width="219" height="30" as="geometry" />
        </mxCell>
        <mxCell id="hMKmBgIzzNZ2vL4rIoQF-305" value="" style="shape=partialRectangle;html=1;whiteSpace=wrap;collapsible=0;dropTarget=0;pointerEvents=0;fillColor=none;top=0;left=0;bottom=0;right=0;points=[[0,0.5],[1,0.5]];portConstraint=eastwest;" parent="hMKmBgIzzNZ2vL4rIoQF-268" vertex="1">
          <mxGeometry y="390" width="280" height="30" as="geometry" />
        </mxCell>
        <mxCell id="hMKmBgIzzNZ2vL4rIoQF-306" value="" style="shape=partialRectangle;html=1;whiteSpace=wrap;connectable=0;fillColor=none;top=0;left=0;bottom=0;right=0;overflow=hidden;" parent="hMKmBgIzzNZ2vL4rIoQF-305" vertex="1">
          <mxGeometry width="61" height="30" as="geometry" />
        </mxCell>
        <mxCell id="hMKmBgIzzNZ2vL4rIoQF-307" value="free_trial_unit" style="shape=partialRectangle;html=1;whiteSpace=wrap;connectable=0;fillColor=none;top=0;left=0;bottom=0;right=0;align=left;spacingLeft=6;overflow=hidden;" parent="hMKmBgIzzNZ2vL4rIoQF-305" vertex="1">
          <mxGeometry x="61" width="219" height="30" as="geometry" />
        </mxCell>
        <mxCell id="hMKmBgIzzNZ2vL4rIoQF-308" value="" style="shape=partialRectangle;html=1;whiteSpace=wrap;collapsible=0;dropTarget=0;pointerEvents=0;fillColor=none;top=0;left=0;bottom=0;right=0;points=[[0,0.5],[1,0.5]];portConstraint=eastwest;" parent="hMKmBgIzzNZ2vL4rIoQF-268" vertex="1">
          <mxGeometry y="420" width="280" height="30" as="geometry" />
        </mxCell>
        <mxCell id="hMKmBgIzzNZ2vL4rIoQF-309" value="" style="shape=partialRectangle;html=1;whiteSpace=wrap;connectable=0;fillColor=none;top=0;left=0;bottom=0;right=0;overflow=hidden;" parent="hMKmBgIzzNZ2vL4rIoQF-308" vertex="1">
          <mxGeometry width="61" height="30" as="geometry" />
        </mxCell>
        <mxCell id="hMKmBgIzzNZ2vL4rIoQF-310" value="free_trial_amount" style="shape=partialRectangle;html=1;whiteSpace=wrap;connectable=0;fillColor=none;top=0;left=0;bottom=0;right=0;align=left;spacingLeft=6;overflow=hidden;" parent="hMKmBgIzzNZ2vL4rIoQF-308" vertex="1">
          <mxGeometry x="61" width="219" height="30" as="geometry" />
        </mxCell>
        <mxCell id="hMKmBgIzzNZ2vL4rIoQF-311" value="" style="shape=partialRectangle;html=1;whiteSpace=wrap;collapsible=0;dropTarget=0;pointerEvents=0;fillColor=none;top=0;left=0;bottom=0;right=0;points=[[0,0.5],[1,0.5]];portConstraint=eastwest;" parent="hMKmBgIzzNZ2vL4rIoQF-268" vertex="1">
          <mxGeometry y="450" width="280" height="30" as="geometry" />
        </mxCell>
        <mxCell id="hMKmBgIzzNZ2vL4rIoQF-312" value="" style="shape=partialRectangle;html=1;whiteSpace=wrap;connectable=0;fillColor=none;top=0;left=0;bottom=0;right=0;overflow=hidden;" parent="hMKmBgIzzNZ2vL4rIoQF-311" vertex="1">
          <mxGeometry width="61" height="30" as="geometry" />
        </mxCell>
        <mxCell id="hMKmBgIzzNZ2vL4rIoQF-313" value="applies_to_all_plans" style="shape=partialRectangle;html=1;whiteSpace=wrap;connectable=0;fillColor=none;top=0;left=0;bottom=0;right=0;align=left;spacingLeft=6;overflow=hidden;" parent="hMKmBgIzzNZ2vL4rIoQF-311" vertex="1">
          <mxGeometry x="61" width="219" height="30" as="geometry" />
        </mxCell>
        <mxCell id="hMKmBgIzzNZ2vL4rIoQF-314" value="" style="shape=partialRectangle;html=1;whiteSpace=wrap;collapsible=0;dropTarget=0;pointerEvents=0;fillColor=none;top=0;left=0;bottom=0;right=0;points=[[0,0.5],[1,0.5]];portConstraint=eastwest;" parent="hMKmBgIzzNZ2vL4rIoQF-268" vertex="1">
          <mxGeometry y="480" width="280" height="30" as="geometry" />
        </mxCell>
        <mxCell id="hMKmBgIzzNZ2vL4rIoQF-315" value="" style="shape=partialRectangle;html=1;whiteSpace=wrap;connectable=0;fillColor=none;top=0;left=0;bottom=0;right=0;overflow=hidden;" parent="hMKmBgIzzNZ2vL4rIoQF-314" vertex="1">
          <mxGeometry width="61" height="30" as="geometry" />
        </mxCell>
        <mxCell id="hMKmBgIzzNZ2vL4rIoQF-316" value="applies_to_all_items" style="shape=partialRectangle;html=1;whiteSpace=wrap;connectable=0;fillColor=none;top=0;left=0;bottom=0;right=0;align=left;spacingLeft=6;overflow=hidden;" parent="hMKmBgIzzNZ2vL4rIoQF-314" vertex="1">
          <mxGeometry x="61" width="219" height="30" as="geometry" />
        </mxCell>
        <mxCell id="hMKmBgIzzNZ2vL4rIoQF-320" value="" style="shape=partialRectangle;html=1;whiteSpace=wrap;collapsible=0;dropTarget=0;pointerEvents=0;fillColor=none;top=0;left=0;bottom=0;right=0;points=[[0,0.5],[1,0.5]];portConstraint=eastwest;" parent="hMKmBgIzzNZ2vL4rIoQF-268" vertex="1">
          <mxGeometry y="510" width="280" height="30" as="geometry" />
        </mxCell>
        <mxCell id="hMKmBgIzzNZ2vL4rIoQF-321" value="" style="shape=partialRectangle;html=1;whiteSpace=wrap;connectable=0;fillColor=none;top=0;left=0;bottom=0;right=0;overflow=hidden;" parent="hMKmBgIzzNZ2vL4rIoQF-320" vertex="1">
          <mxGeometry width="61" height="30" as="geometry" />
        </mxCell>
        <mxCell id="hMKmBgIzzNZ2vL4rIoQF-322" value="applies_to_non_plan_charges" style="shape=partialRectangle;html=1;whiteSpace=wrap;connectable=0;fillColor=none;top=0;left=0;bottom=0;right=0;align=left;spacingLeft=6;overflow=hidden;" parent="hMKmBgIzzNZ2vL4rIoQF-320" vertex="1">
          <mxGeometry x="61" width="219" height="30" as="geometry" />
        </mxCell>
        <mxCell id="hMKmBgIzzNZ2vL4rIoQF-323" value="" style="shape=partialRectangle;html=1;whiteSpace=wrap;collapsible=0;dropTarget=0;pointerEvents=0;fillColor=none;top=0;left=0;bottom=0;right=0;points=[[0,0.5],[1,0.5]];portConstraint=eastwest;" parent="hMKmBgIzzNZ2vL4rIoQF-268" vertex="1">
          <mxGeometry y="540" width="280" height="30" as="geometry" />
        </mxCell>
        <mxCell id="hMKmBgIzzNZ2vL4rIoQF-324" value="" style="shape=partialRectangle;html=1;whiteSpace=wrap;connectable=0;fillColor=none;top=0;left=0;bottom=0;right=0;overflow=hidden;" parent="hMKmBgIzzNZ2vL4rIoQF-323" vertex="1">
          <mxGeometry width="61" height="30" as="geometry" />
        </mxCell>
        <mxCell id="hMKmBgIzzNZ2vL4rIoQF-325" value="plans_names" style="shape=partialRectangle;html=1;whiteSpace=wrap;connectable=0;fillColor=none;top=0;left=0;bottom=0;right=0;align=left;spacingLeft=6;overflow=hidden;" parent="hMKmBgIzzNZ2vL4rIoQF-323" vertex="1">
          <mxGeometry x="61" width="219" height="30" as="geometry" />
        </mxCell>
        <mxCell id="hMKmBgIzzNZ2vL4rIoQF-326" value="" style="shape=partialRectangle;html=1;whiteSpace=wrap;collapsible=0;dropTarget=0;pointerEvents=0;fillColor=none;top=0;left=0;bottom=0;right=0;points=[[0,0.5],[1,0.5]];portConstraint=eastwest;" parent="hMKmBgIzzNZ2vL4rIoQF-268" vertex="1">
          <mxGeometry y="570" width="280" height="30" as="geometry" />
        </mxCell>
        <mxCell id="hMKmBgIzzNZ2vL4rIoQF-327" value="" style="shape=partialRectangle;html=1;whiteSpace=wrap;connectable=0;fillColor=none;top=0;left=0;bottom=0;right=0;overflow=hidden;" parent="hMKmBgIzzNZ2vL4rIoQF-326" vertex="1">
          <mxGeometry width="61" height="30" as="geometry" />
        </mxCell>
        <mxCell id="hMKmBgIzzNZ2vL4rIoQF-328" value="plans" style="shape=partialRectangle;html=1;whiteSpace=wrap;connectable=0;fillColor=none;top=0;left=0;bottom=0;right=0;align=left;spacingLeft=6;overflow=hidden;" parent="hMKmBgIzzNZ2vL4rIoQF-326" vertex="1">
          <mxGeometry x="61" width="219" height="30" as="geometry" />
        </mxCell>
        <mxCell id="hMKmBgIzzNZ2vL4rIoQF-329" value="" style="shape=partialRectangle;html=1;whiteSpace=wrap;collapsible=0;dropTarget=0;pointerEvents=0;fillColor=none;top=0;left=0;bottom=0;right=0;points=[[0,0.5],[1,0.5]];portConstraint=eastwest;" parent="hMKmBgIzzNZ2vL4rIoQF-268" vertex="1">
          <mxGeometry y="600" width="280" height="30" as="geometry" />
        </mxCell>
        <mxCell id="hMKmBgIzzNZ2vL4rIoQF-330" value="" style="shape=partialRectangle;html=1;whiteSpace=wrap;connectable=0;fillColor=none;top=0;left=0;bottom=0;right=0;overflow=hidden;" parent="hMKmBgIzzNZ2vL4rIoQF-329" vertex="1">
          <mxGeometry width="61" height="30" as="geometry" />
        </mxCell>
        <mxCell id="hMKmBgIzzNZ2vL4rIoQF-331" value="items" style="shape=partialRectangle;html=1;whiteSpace=wrap;connectable=0;fillColor=none;top=0;left=0;bottom=0;right=0;align=left;spacingLeft=6;overflow=hidden;" parent="hMKmBgIzzNZ2vL4rIoQF-329" vertex="1">
          <mxGeometry x="61" width="219" height="30" as="geometry" />
        </mxCell>
        <mxCell id="hMKmBgIzzNZ2vL4rIoQF-332" value="" style="shape=partialRectangle;html=1;whiteSpace=wrap;collapsible=0;dropTarget=0;pointerEvents=0;fillColor=none;top=0;left=0;bottom=0;right=0;points=[[0,0.5],[1,0.5]];portConstraint=eastwest;" parent="hMKmBgIzzNZ2vL4rIoQF-268" vertex="1">
          <mxGeometry y="630" width="280" height="30" as="geometry" />
        </mxCell>
        <mxCell id="hMKmBgIzzNZ2vL4rIoQF-333" value="" style="shape=partialRectangle;html=1;whiteSpace=wrap;connectable=0;fillColor=none;top=0;left=0;bottom=0;right=0;overflow=hidden;" parent="hMKmBgIzzNZ2vL4rIoQF-332" vertex="1">
          <mxGeometry width="61" height="30" as="geometry" />
        </mxCell>
        <mxCell id="hMKmBgIzzNZ2vL4rIoQF-334" value="redemption_resource" style="shape=partialRectangle;html=1;whiteSpace=wrap;connectable=0;fillColor=none;top=0;left=0;bottom=0;right=0;align=left;spacingLeft=6;overflow=hidden;" parent="hMKmBgIzzNZ2vL4rIoQF-332" vertex="1">
          <mxGeometry x="61" width="219" height="30" as="geometry" />
        </mxCell>
        <mxCell id="hMKmBgIzzNZ2vL4rIoQF-335" value="" style="shape=partialRectangle;html=1;whiteSpace=wrap;collapsible=0;dropTarget=0;pointerEvents=0;fillColor=none;top=0;left=0;bottom=0;right=0;points=[[0,0.5],[1,0.5]];portConstraint=eastwest;" parent="hMKmBgIzzNZ2vL4rIoQF-268" vertex="1">
          <mxGeometry y="660" width="280" height="30" as="geometry" />
        </mxCell>
        <mxCell id="hMKmBgIzzNZ2vL4rIoQF-336" value="" style="shape=partialRectangle;html=1;whiteSpace=wrap;connectable=0;fillColor=none;top=0;left=0;bottom=0;right=0;overflow=hidden;" parent="hMKmBgIzzNZ2vL4rIoQF-335" vertex="1">
          <mxGeometry width="61" height="30" as="geometry" />
        </mxCell>
        <mxCell id="hMKmBgIzzNZ2vL4rIoQF-337" value="discount" style="shape=partialRectangle;html=1;whiteSpace=wrap;connectable=0;fillColor=none;top=0;left=0;bottom=0;right=0;align=left;spacingLeft=6;overflow=hidden;" parent="hMKmBgIzzNZ2vL4rIoQF-335" vertex="1">
          <mxGeometry x="61" width="219" height="30" as="geometry" />
        </mxCell>
        <mxCell id="hMKmBgIzzNZ2vL4rIoQF-338" value="" style="shape=partialRectangle;html=1;whiteSpace=wrap;collapsible=0;dropTarget=0;pointerEvents=0;fillColor=none;top=0;left=0;bottom=0;right=0;points=[[0,0.5],[1,0.5]];portConstraint=eastwest;" parent="hMKmBgIzzNZ2vL4rIoQF-268" vertex="1">
          <mxGeometry y="690" width="280" height="30" as="geometry" />
        </mxCell>
        <mxCell id="hMKmBgIzzNZ2vL4rIoQF-339" value="" style="shape=partialRectangle;html=1;whiteSpace=wrap;connectable=0;fillColor=none;top=0;left=0;bottom=0;right=0;overflow=hidden;" parent="hMKmBgIzzNZ2vL4rIoQF-338" vertex="1">
          <mxGeometry width="61" height="30" as="geometry" />
        </mxCell>
        <mxCell id="hMKmBgIzzNZ2vL4rIoQF-340" value="coupon_type" style="shape=partialRectangle;html=1;whiteSpace=wrap;connectable=0;fillColor=none;top=0;left=0;bottom=0;right=0;align=left;spacingLeft=6;overflow=hidden;" parent="hMKmBgIzzNZ2vL4rIoQF-338" vertex="1">
          <mxGeometry x="61" width="219" height="30" as="geometry" />
        </mxCell>
        <mxCell id="hMKmBgIzzNZ2vL4rIoQF-341" value="" style="shape=partialRectangle;html=1;whiteSpace=wrap;collapsible=0;dropTarget=0;pointerEvents=0;fillColor=none;top=0;left=0;bottom=0;right=0;points=[[0,0.5],[1,0.5]];portConstraint=eastwest;" parent="hMKmBgIzzNZ2vL4rIoQF-268" vertex="1">
          <mxGeometry y="720" width="280" height="30" as="geometry" />
        </mxCell>
        <mxCell id="hMKmBgIzzNZ2vL4rIoQF-342" value="" style="shape=partialRectangle;html=1;whiteSpace=wrap;connectable=0;fillColor=none;top=0;left=0;bottom=0;right=0;overflow=hidden;" parent="hMKmBgIzzNZ2vL4rIoQF-341" vertex="1">
          <mxGeometry width="61" height="30" as="geometry" />
        </mxCell>
        <mxCell id="hMKmBgIzzNZ2vL4rIoQF-343" value="hosted_page_description" style="shape=partialRectangle;html=1;whiteSpace=wrap;connectable=0;fillColor=none;top=0;left=0;bottom=0;right=0;align=left;spacingLeft=6;overflow=hidden;" parent="hMKmBgIzzNZ2vL4rIoQF-341" vertex="1">
          <mxGeometry x="61" width="219" height="30" as="geometry" />
        </mxCell>
        <mxCell id="hMKmBgIzzNZ2vL4rIoQF-344" value="" style="shape=partialRectangle;html=1;whiteSpace=wrap;collapsible=0;dropTarget=0;pointerEvents=0;fillColor=none;top=0;left=0;bottom=0;right=0;points=[[0,0.5],[1,0.5]];portConstraint=eastwest;" parent="hMKmBgIzzNZ2vL4rIoQF-268" vertex="1">
          <mxGeometry y="750" width="280" height="30" as="geometry" />
        </mxCell>
        <mxCell id="hMKmBgIzzNZ2vL4rIoQF-345" value="" style="shape=partialRectangle;html=1;whiteSpace=wrap;connectable=0;fillColor=none;top=0;left=0;bottom=0;right=0;overflow=hidden;" parent="hMKmBgIzzNZ2vL4rIoQF-344" vertex="1">
          <mxGeometry width="61" height="30" as="geometry" />
        </mxCell>
        <mxCell id="hMKmBgIzzNZ2vL4rIoQF-346" value="invoice_description" style="shape=partialRectangle;html=1;whiteSpace=wrap;connectable=0;fillColor=none;top=0;left=0;bottom=0;right=0;align=left;spacingLeft=6;overflow=hidden;" parent="hMKmBgIzzNZ2vL4rIoQF-344" vertex="1">
          <mxGeometry x="61" width="219" height="30" as="geometry" />
        </mxCell>
        <mxCell id="hMKmBgIzzNZ2vL4rIoQF-347" value="" style="shape=partialRectangle;html=1;whiteSpace=wrap;collapsible=0;dropTarget=0;pointerEvents=0;fillColor=none;top=0;left=0;bottom=0;right=0;points=[[0,0.5],[1,0.5]];portConstraint=eastwest;" parent="hMKmBgIzzNZ2vL4rIoQF-268" vertex="1">
          <mxGeometry y="780" width="280" height="30" as="geometry" />
        </mxCell>
        <mxCell id="hMKmBgIzzNZ2vL4rIoQF-348" value="" style="shape=partialRectangle;html=1;whiteSpace=wrap;connectable=0;fillColor=none;top=0;left=0;bottom=0;right=0;overflow=hidden;" parent="hMKmBgIzzNZ2vL4rIoQF-347" vertex="1">
          <mxGeometry width="61" height="30" as="geometry" />
        </mxCell>
        <mxCell id="hMKmBgIzzNZ2vL4rIoQF-349" value="redeem_by" style="shape=partialRectangle;html=1;whiteSpace=wrap;connectable=0;fillColor=none;top=0;left=0;bottom=0;right=0;align=left;spacingLeft=6;overflow=hidden;" parent="hMKmBgIzzNZ2vL4rIoQF-347" vertex="1">
          <mxGeometry x="61" width="219" height="30" as="geometry" />
        </mxCell>
        <mxCell id="hMKmBgIzzNZ2vL4rIoQF-350" value="" style="shape=partialRectangle;html=1;whiteSpace=wrap;collapsible=0;dropTarget=0;pointerEvents=0;fillColor=none;top=0;left=0;bottom=0;right=0;points=[[0,0.5],[1,0.5]];portConstraint=eastwest;" parent="hMKmBgIzzNZ2vL4rIoQF-268" vertex="1">
          <mxGeometry y="810" width="280" height="30" as="geometry" />
        </mxCell>
        <mxCell id="hMKmBgIzzNZ2vL4rIoQF-351" value="" style="shape=partialRectangle;html=1;whiteSpace=wrap;connectable=0;fillColor=none;top=0;left=0;bottom=0;right=0;overflow=hidden;" parent="hMKmBgIzzNZ2vL4rIoQF-350" vertex="1">
          <mxGeometry width="61" height="30" as="geometry" />
        </mxCell>
        <mxCell id="hMKmBgIzzNZ2vL4rIoQF-352" value="bulk_counpon_id" style="shape=partialRectangle;html=1;whiteSpace=wrap;connectable=0;fillColor=none;top=0;left=0;bottom=0;right=0;align=left;spacingLeft=6;overflow=hidden;" parent="hMKmBgIzzNZ2vL4rIoQF-350" vertex="1">
          <mxGeometry x="61" width="219" height="30" as="geometry" />
        </mxCell>
        <mxCell id="hMKmBgIzzNZ2vL4rIoQF-353" value="" style="shape=partialRectangle;html=1;whiteSpace=wrap;collapsible=0;dropTarget=0;pointerEvents=0;fillColor=none;top=0;left=0;bottom=0;right=0;points=[[0,0.5],[1,0.5]];portConstraint=eastwest;" parent="hMKmBgIzzNZ2vL4rIoQF-268" vertex="1">
          <mxGeometry y="840" width="280" height="30" as="geometry" />
        </mxCell>
        <mxCell id="hMKmBgIzzNZ2vL4rIoQF-354" value="" style="shape=partialRectangle;html=1;whiteSpace=wrap;connectable=0;fillColor=none;top=0;left=0;bottom=0;right=0;overflow=hidden;" parent="hMKmBgIzzNZ2vL4rIoQF-353" vertex="1">
          <mxGeometry width="61" height="30" as="geometry" />
        </mxCell>
        <mxCell id="hMKmBgIzzNZ2vL4rIoQF-355" value="bulk_coupon_code" style="shape=partialRectangle;html=1;whiteSpace=wrap;connectable=0;fillColor=none;top=0;left=0;bottom=0;right=0;align=left;spacingLeft=6;overflow=hidden;" parent="hMKmBgIzzNZ2vL4rIoQF-353" vertex="1">
          <mxGeometry x="61" width="219" height="30" as="geometry" />
        </mxCell>
        <mxCell id="hMKmBgIzzNZ2vL4rIoQF-356" value="" style="shape=partialRectangle;html=1;whiteSpace=wrap;collapsible=0;dropTarget=0;pointerEvents=0;fillColor=none;top=0;left=0;bottom=0;right=0;points=[[0,0.5],[1,0.5]];portConstraint=eastwest;" parent="hMKmBgIzzNZ2vL4rIoQF-268" vertex="1">
          <mxGeometry y="870" width="280" height="30" as="geometry" />
        </mxCell>
        <mxCell id="hMKmBgIzzNZ2vL4rIoQF-357" value="" style="shape=partialRectangle;html=1;whiteSpace=wrap;connectable=0;fillColor=none;top=0;left=0;bottom=0;right=0;overflow=hidden;" parent="hMKmBgIzzNZ2vL4rIoQF-356" vertex="1">
          <mxGeometry width="61" height="30" as="geometry" />
        </mxCell>
        <mxCell id="hMKmBgIzzNZ2vL4rIoQF-358" value="redeemed_at" style="shape=partialRectangle;html=1;whiteSpace=wrap;connectable=0;fillColor=none;top=0;left=0;bottom=0;right=0;align=left;spacingLeft=6;overflow=hidden;" parent="hMKmBgIzzNZ2vL4rIoQF-356" vertex="1">
          <mxGeometry x="61" width="219" height="30" as="geometry" />
        </mxCell>
        <mxCell id="hMKmBgIzzNZ2vL4rIoQF-359" value="" style="shape=partialRectangle;html=1;whiteSpace=wrap;collapsible=0;dropTarget=0;pointerEvents=0;fillColor=none;top=0;left=0;bottom=0;right=0;points=[[0,0.5],[1,0.5]];portConstraint=eastwest;" parent="hMKmBgIzzNZ2vL4rIoQF-268" vertex="1">
          <mxGeometry y="900" width="280" height="30" as="geometry" />
        </mxCell>
        <mxCell id="hMKmBgIzzNZ2vL4rIoQF-360" value="" style="shape=partialRectangle;html=1;whiteSpace=wrap;connectable=0;fillColor=none;top=0;left=0;bottom=0;right=0;overflow=hidden;" parent="hMKmBgIzzNZ2vL4rIoQF-359" vertex="1">
          <mxGeometry width="61" height="30" as="geometry" />
        </mxCell>
        <mxCell id="hMKmBgIzzNZ2vL4rIoQF-361" value="created_at" style="shape=partialRectangle;html=1;whiteSpace=wrap;connectable=0;fillColor=none;top=0;left=0;bottom=0;right=0;align=left;spacingLeft=6;overflow=hidden;" parent="hMKmBgIzzNZ2vL4rIoQF-359" vertex="1">
          <mxGeometry x="61" width="219" height="30" as="geometry" />
        </mxCell>
        <mxCell id="hMKmBgIzzNZ2vL4rIoQF-362" value="" style="shape=partialRectangle;html=1;whiteSpace=wrap;collapsible=0;dropTarget=0;pointerEvents=0;fillColor=none;top=0;left=0;bottom=0;right=0;points=[[0,0.5],[1,0.5]];portConstraint=eastwest;" parent="hMKmBgIzzNZ2vL4rIoQF-268" vertex="1">
          <mxGeometry y="930" width="280" height="30" as="geometry" />
        </mxCell>
        <mxCell id="hMKmBgIzzNZ2vL4rIoQF-363" value="" style="shape=partialRectangle;html=1;whiteSpace=wrap;connectable=0;fillColor=none;top=0;left=0;bottom=0;right=0;overflow=hidden;" parent="hMKmBgIzzNZ2vL4rIoQF-362" vertex="1">
          <mxGeometry width="61" height="30" as="geometry" />
        </mxCell>
        <mxCell id="hMKmBgIzzNZ2vL4rIoQF-364" value="updated_at" style="shape=partialRectangle;html=1;whiteSpace=wrap;connectable=0;fillColor=none;top=0;left=0;bottom=0;right=0;align=left;spacingLeft=6;overflow=hidden;" parent="hMKmBgIzzNZ2vL4rIoQF-362" vertex="1">
          <mxGeometry x="61" width="219" height="30" as="geometry" />
        </mxCell>
        <mxCell id="hMKmBgIzzNZ2vL4rIoQF-365" value="" style="shape=partialRectangle;html=1;whiteSpace=wrap;collapsible=0;dropTarget=0;pointerEvents=0;fillColor=none;top=0;left=0;bottom=0;right=0;points=[[0,0.5],[1,0.5]];portConstraint=eastwest;" parent="hMKmBgIzzNZ2vL4rIoQF-268" vertex="1">
          <mxGeometry y="960" width="280" height="30" as="geometry" />
        </mxCell>
        <mxCell id="hMKmBgIzzNZ2vL4rIoQF-366" value="" style="shape=partialRectangle;html=1;whiteSpace=wrap;connectable=0;fillColor=none;top=0;left=0;bottom=0;right=0;overflow=hidden;" parent="hMKmBgIzzNZ2vL4rIoQF-365" vertex="1">
          <mxGeometry width="61" height="30" as="geometry" />
        </mxCell>
        <mxCell id="hMKmBgIzzNZ2vL4rIoQF-367" value="expired_at" style="shape=partialRectangle;html=1;whiteSpace=wrap;connectable=0;fillColor=none;top=0;left=0;bottom=0;right=0;align=left;spacingLeft=6;overflow=hidden;" parent="hMKmBgIzzNZ2vL4rIoQF-365" vertex="1">
          <mxGeometry x="61" width="219" height="30" as="geometry" />
        </mxCell>
        <mxCell id="hMKmBgIzzNZ2vL4rIoQF-368" value="Mapping_Coupon" style="shape=table;html=1;whiteSpace=wrap;startSize=30;container=1;collapsible=0;childLayout=tableLayout;fixedRows=1;rowLines=0;fontStyle=1;align=center;" parent="1" vertex="1">
          <mxGeometry x="350" y="40" width="180" height="400" as="geometry" />
        </mxCell>
        <mxCell id="hMKmBgIzzNZ2vL4rIoQF-369" value="" style="shape=partialRectangle;html=1;whiteSpace=wrap;collapsible=0;dropTarget=0;pointerEvents=0;fillColor=none;top=0;left=0;bottom=1;right=0;points=[[0,0.5],[1,0.5]];portConstraint=eastwest;" parent="hMKmBgIzzNZ2vL4rIoQF-368" vertex="1">
          <mxGeometry y="30" width="180" height="30" as="geometry" />
        </mxCell>
        <mxCell id="hMKmBgIzzNZ2vL4rIoQF-370" value="1" style="shape=partialRectangle;html=1;whiteSpace=wrap;connectable=0;fillColor=none;top=0;left=0;bottom=0;right=0;overflow=hidden;" parent="hMKmBgIzzNZ2vL4rIoQF-369" vertex="1">
          <mxGeometry width="40" height="30" as="geometry" />
        </mxCell>
        <mxCell id="hMKmBgIzzNZ2vL4rIoQF-371" value="id" style="shape=partialRectangle;html=1;whiteSpace=wrap;connectable=0;fillColor=none;top=0;left=0;bottom=0;right=0;align=left;spacingLeft=6;overflow=hidden;" parent="hMKmBgIzzNZ2vL4rIoQF-369" vertex="1">
          <mxGeometry x="40" width="140" height="30" as="geometry" />
        </mxCell>
        <mxCell id="hMKmBgIzzNZ2vL4rIoQF-372" value="" style="shape=partialRectangle;html=1;whiteSpace=wrap;collapsible=0;dropTarget=0;pointerEvents=0;fillColor=none;top=0;left=0;bottom=0;right=0;points=[[0,0.5],[1,0.5]];portConstraint=eastwest;" parent="hMKmBgIzzNZ2vL4rIoQF-368" vertex="1">
          <mxGeometry y="60" width="180" height="30" as="geometry" />
        </mxCell>
        <mxCell id="hMKmBgIzzNZ2vL4rIoQF-373" value="2" style="shape=partialRectangle;html=1;whiteSpace=wrap;connectable=0;fillColor=none;top=0;left=0;bottom=0;right=0;overflow=hidden;" parent="hMKmBgIzzNZ2vL4rIoQF-372" vertex="1">
          <mxGeometry width="40" height="30" as="geometry" />
        </mxCell>
        <mxCell id="hMKmBgIzzNZ2vL4rIoQF-374" value="name" style="shape=partialRectangle;html=1;whiteSpace=wrap;connectable=0;fillColor=none;top=0;left=0;bottom=0;right=0;align=left;spacingLeft=6;overflow=hidden;" parent="hMKmBgIzzNZ2vL4rIoQF-372" vertex="1">
          <mxGeometry x="40" width="140" height="30" as="geometry" />
        </mxCell>
        <mxCell id="hMKmBgIzzNZ2vL4rIoQF-375" value="" style="shape=partialRectangle;html=1;whiteSpace=wrap;collapsible=0;dropTarget=0;pointerEvents=0;fillColor=none;top=0;left=0;bottom=0;right=0;points=[[0,0.5],[1,0.5]];portConstraint=eastwest;" parent="hMKmBgIzzNZ2vL4rIoQF-368" vertex="1">
          <mxGeometry y="90" width="180" height="30" as="geometry" />
        </mxCell>
        <mxCell id="hMKmBgIzzNZ2vL4rIoQF-376" value="3" style="shape=partialRectangle;html=1;whiteSpace=wrap;connectable=0;fillColor=none;top=0;left=0;bottom=0;right=0;overflow=hidden;" parent="hMKmBgIzzNZ2vL4rIoQF-375" vertex="1">
          <mxGeometry width="40" height="30" as="geometry" />
        </mxCell>
        <mxCell id="hMKmBgIzzNZ2vL4rIoQF-377" value="plan_id" style="shape=partialRectangle;html=1;whiteSpace=wrap;connectable=0;fillColor=none;top=0;left=0;bottom=0;right=0;align=left;spacingLeft=6;overflow=hidden;" parent="hMKmBgIzzNZ2vL4rIoQF-375" vertex="1">
          <mxGeometry x="40" width="140" height="30" as="geometry" />
        </mxCell>
        <mxCell id="hMKmBgIzzNZ2vL4rIoQF-388" value="" style="shape=partialRectangle;html=1;whiteSpace=wrap;collapsible=0;dropTarget=0;pointerEvents=0;fillColor=none;top=0;left=0;bottom=0;right=0;points=[[0,0.5],[1,0.5]];portConstraint=eastwest;" parent="hMKmBgIzzNZ2vL4rIoQF-368" vertex="1">
          <mxGeometry y="120" width="180" height="30" as="geometry" />
        </mxCell>
        <mxCell id="hMKmBgIzzNZ2vL4rIoQF-389" value="4" style="shape=partialRectangle;html=1;whiteSpace=wrap;connectable=0;fillColor=none;top=0;left=0;bottom=0;right=0;overflow=hidden;" parent="hMKmBgIzzNZ2vL4rIoQF-388" vertex="1">
          <mxGeometry width="40" height="30" as="geometry" />
        </mxCell>
        <mxCell id="hMKmBgIzzNZ2vL4rIoQF-390" value="account_id" style="shape=partialRectangle;html=1;whiteSpace=wrap;connectable=0;fillColor=none;top=0;left=0;bottom=0;right=0;align=left;spacingLeft=6;overflow=hidden;" parent="hMKmBgIzzNZ2vL4rIoQF-388" vertex="1">
          <mxGeometry x="40" width="140" height="30" as="geometry" />
        </mxCell>
        <mxCell id="hMKmBgIzzNZ2vL4rIoQF-394" value="" style="shape=partialRectangle;html=1;whiteSpace=wrap;collapsible=0;dropTarget=0;pointerEvents=0;fillColor=none;top=0;left=0;bottom=0;right=0;points=[[0,0.5],[1,0.5]];portConstraint=eastwest;" parent="hMKmBgIzzNZ2vL4rIoQF-368" vertex="1">
          <mxGeometry y="150" width="180" height="30" as="geometry" />
        </mxCell>
        <mxCell id="hMKmBgIzzNZ2vL4rIoQF-395" value="5" style="shape=partialRectangle;html=1;whiteSpace=wrap;connectable=0;fillColor=none;top=0;left=0;bottom=0;right=0;overflow=hidden;" parent="hMKmBgIzzNZ2vL4rIoQF-394" vertex="1">
          <mxGeometry width="40" height="30" as="geometry" />
        </mxCell>
        <mxCell id="hMKmBgIzzNZ2vL4rIoQF-396" value="status" style="shape=partialRectangle;html=1;whiteSpace=wrap;connectable=0;fillColor=none;top=0;left=0;bottom=0;right=0;align=left;spacingLeft=6;overflow=hidden;" parent="hMKmBgIzzNZ2vL4rIoQF-394" vertex="1">
          <mxGeometry x="40" width="140" height="30" as="geometry" />
        </mxCell>
        <mxCell id="hMKmBgIzzNZ2vL4rIoQF-399" value="" style="shape=partialRectangle;html=1;whiteSpace=wrap;collapsible=0;dropTarget=0;pointerEvents=0;fillColor=none;top=0;left=0;bottom=0;right=0;points=[[0,0.5],[1,0.5]];portConstraint=eastwest;" parent="hMKmBgIzzNZ2vL4rIoQF-368" vertex="1">
          <mxGeometry y="180" width="180" height="30" as="geometry" />
        </mxCell>
        <mxCell id="hMKmBgIzzNZ2vL4rIoQF-400" value="6" style="shape=partialRectangle;html=1;whiteSpace=wrap;connectable=0;fillColor=none;top=0;left=0;bottom=0;right=0;overflow=hidden;" parent="hMKmBgIzzNZ2vL4rIoQF-399" vertex="1">
          <mxGeometry width="40" height="30" as="geometry" />
        </mxCell>
        <mxCell id="hMKmBgIzzNZ2vL4rIoQF-401" value="created_at" style="shape=partialRectangle;html=1;whiteSpace=wrap;connectable=0;fillColor=none;top=0;left=0;bottom=0;right=0;align=left;spacingLeft=6;overflow=hidden;" parent="hMKmBgIzzNZ2vL4rIoQF-399" vertex="1">
          <mxGeometry x="40" width="140" height="30" as="geometry" />
        </mxCell>
        <mxCell id="hMKmBgIzzNZ2vL4rIoQF-402" value="" style="shape=partialRectangle;html=1;whiteSpace=wrap;collapsible=0;dropTarget=0;pointerEvents=0;fillColor=none;top=0;left=0;bottom=0;right=0;points=[[0,0.5],[1,0.5]];portConstraint=eastwest;" parent="hMKmBgIzzNZ2vL4rIoQF-368" vertex="1">
          <mxGeometry y="210" width="180" height="30" as="geometry" />
        </mxCell>
        <mxCell id="hMKmBgIzzNZ2vL4rIoQF-403" value="7" style="shape=partialRectangle;html=1;whiteSpace=wrap;connectable=0;fillColor=none;top=0;left=0;bottom=0;right=0;overflow=hidden;" parent="hMKmBgIzzNZ2vL4rIoQF-402" vertex="1">
          <mxGeometry width="40" height="30" as="geometry" />
        </mxCell>
        <mxCell id="hMKmBgIzzNZ2vL4rIoQF-404" value="updated_at" style="shape=partialRectangle;html=1;whiteSpace=wrap;connectable=0;fillColor=none;top=0;left=0;bottom=0;right=0;align=left;spacingLeft=6;overflow=hidden;" parent="hMKmBgIzzNZ2vL4rIoQF-402" vertex="1">
          <mxGeometry x="40" width="140" height="30" as="geometry" />
        </mxCell>
        <mxCell id="hMKmBgIzzNZ2vL4rIoQF-410" value="" style="shape=partialRectangle;html=1;whiteSpace=wrap;collapsible=0;dropTarget=0;pointerEvents=0;fillColor=none;top=0;left=0;bottom=0;right=0;points=[[0,0.5],[1,0.5]];portConstraint=eastwest;" parent="hMKmBgIzzNZ2vL4rIoQF-368" vertex="1">
          <mxGeometry y="240" width="180" height="30" as="geometry" />
        </mxCell>
        <mxCell id="hMKmBgIzzNZ2vL4rIoQF-411" value="8" style="shape=partialRectangle;html=1;whiteSpace=wrap;connectable=0;fillColor=none;top=0;left=0;bottom=0;right=0;overflow=hidden;" parent="hMKmBgIzzNZ2vL4rIoQF-410" vertex="1">
          <mxGeometry width="40" height="30" as="geometry" />
        </mxCell>
        <mxCell id="hMKmBgIzzNZ2vL4rIoQF-412" value="expire_date" style="shape=partialRectangle;html=1;whiteSpace=wrap;connectable=0;fillColor=none;top=0;left=0;bottom=0;right=0;align=left;spacingLeft=6;overflow=hidden;" parent="hMKmBgIzzNZ2vL4rIoQF-410" vertex="1">
          <mxGeometry x="40" width="140" height="30" as="geometry" />
        </mxCell>
        <mxCell id="hMKmBgIzzNZ2vL4rIoQF-416" value="" style="shape=partialRectangle;html=1;whiteSpace=wrap;collapsible=0;dropTarget=0;pointerEvents=0;fillColor=none;top=0;left=0;bottom=0;right=0;points=[[0,0.5],[1,0.5]];portConstraint=eastwest;" parent="hMKmBgIzzNZ2vL4rIoQF-368" vertex="1">
          <mxGeometry y="270" width="180" height="30" as="geometry" />
        </mxCell>
        <mxCell id="hMKmBgIzzNZ2vL4rIoQF-417" value="9" style="shape=partialRectangle;html=1;whiteSpace=wrap;connectable=0;fillColor=none;top=0;left=0;bottom=0;right=0;overflow=hidden;" parent="hMKmBgIzzNZ2vL4rIoQF-416" vertex="1">
          <mxGeometry width="40" height="30" as="geometry" />
        </mxCell>
        <mxCell id="hMKmBgIzzNZ2vL4rIoQF-418" value="redeemed_at" style="shape=partialRectangle;html=1;whiteSpace=wrap;connectable=0;fillColor=none;top=0;left=0;bottom=0;right=0;align=left;spacingLeft=6;overflow=hidden;" parent="hMKmBgIzzNZ2vL4rIoQF-416" vertex="1">
          <mxGeometry x="40" width="140" height="30" as="geometry" />
        </mxCell>
        <mxCell id="hMKmBgIzzNZ2vL4rIoQF-421" value="" style="shape=partialRectangle;html=1;whiteSpace=wrap;collapsible=0;dropTarget=0;pointerEvents=0;fillColor=none;top=0;left=0;bottom=0;right=0;points=[[0,0.5],[1,0.5]];portConstraint=eastwest;" parent="hMKmBgIzzNZ2vL4rIoQF-368" vertex="1">
          <mxGeometry y="300" width="180" height="30" as="geometry" />
        </mxCell>
        <mxCell id="hMKmBgIzzNZ2vL4rIoQF-422" value="10" style="shape=partialRectangle;html=1;whiteSpace=wrap;connectable=0;fillColor=none;top=0;left=0;bottom=0;right=0;overflow=hidden;" parent="hMKmBgIzzNZ2vL4rIoQF-421" vertex="1">
          <mxGeometry width="40" height="30" as="geometry" />
        </mxCell>
        <mxCell id="hMKmBgIzzNZ2vL4rIoQF-423" value="duration" style="shape=partialRectangle;html=1;whiteSpace=wrap;connectable=0;fillColor=none;top=0;left=0;bottom=0;right=0;align=left;spacingLeft=6;overflow=hidden;" parent="hMKmBgIzzNZ2vL4rIoQF-421" vertex="1">
          <mxGeometry x="40" width="140" height="30" as="geometry" />
        </mxCell>
        <mxCell id="hMKmBgIzzNZ2vL4rIoQF-427" value="" style="shape=partialRectangle;html=1;whiteSpace=wrap;collapsible=0;dropTarget=0;pointerEvents=0;fillColor=none;top=0;left=0;bottom=0;right=0;points=[[0,0.5],[1,0.5]];portConstraint=eastwest;" parent="hMKmBgIzzNZ2vL4rIoQF-368" vertex="1">
          <mxGeometry y="330" width="180" height="30" as="geometry" />
        </mxCell>
        <mxCell id="hMKmBgIzzNZ2vL4rIoQF-428" value="12" style="shape=partialRectangle;html=1;whiteSpace=wrap;connectable=0;fillColor=none;top=0;left=0;bottom=0;right=0;overflow=hidden;" parent="hMKmBgIzzNZ2vL4rIoQF-427" vertex="1">
          <mxGeometry width="40" height="30" as="geometry" />
        </mxCell>
        <mxCell id="hMKmBgIzzNZ2vL4rIoQF-429" value="discount" style="shape=partialRectangle;html=1;whiteSpace=wrap;connectable=0;fillColor=none;top=0;left=0;bottom=0;right=0;align=left;spacingLeft=6;overflow=hidden;" parent="hMKmBgIzzNZ2vL4rIoQF-427" vertex="1">
          <mxGeometry x="40" width="140" height="30" as="geometry" />
        </mxCell>
        <mxCell id="hMKmBgIzzNZ2vL4rIoQF-379" style="edgeStyle=orthogonalEdgeStyle;rounded=0;orthogonalLoop=1;jettySize=auto;html=1;exitX=1;exitY=0.5;exitDx=0;exitDy=0;entryX=-0.009;entryY=0.794;entryDx=0;entryDy=0;entryPerimeter=0;" parent="1" source="hMKmBgIzzNZ2vL4rIoQF-78" target="hMKmBgIzzNZ2vL4rIoQF-372" edge="1">
          <mxGeometry relative="1" as="geometry">
            <Array as="points">
              <mxPoint x="90" y="205" />
              <mxPoint x="90" y="124" />
            </Array>
          </mxGeometry>
        </mxCell>
        <mxCell id="hMKmBgIzzNZ2vL4rIoQF-381" style="edgeStyle=orthogonalEdgeStyle;rounded=0;orthogonalLoop=1;jettySize=auto;html=1;exitX=1;exitY=0.5;exitDx=0;exitDy=0;" parent="1" source="hMKmBgIzzNZ2vL4rIoQF-181" target="hMKmBgIzzNZ2vL4rIoQF-375" edge="1">
          <mxGeometry relative="1" as="geometry">
            <Array as="points">
              <mxPoint x="40" y="390" />
              <mxPoint x="150" y="390" />
              <mxPoint x="150" y="145" />
            </Array>
          </mxGeometry>
        </mxCell>
        <mxCell id="hMKmBgIzzNZ2vL4rIoQF-382" style="edgeStyle=orthogonalEdgeStyle;rounded=0;orthogonalLoop=1;jettySize=auto;html=1;exitX=0;exitY=0.5;exitDx=0;exitDy=0;" parent="1" source="hMKmBgIzzNZ2vL4rIoQF-326" target="hMKmBgIzzNZ2vL4rIoQF-375" edge="1">
          <mxGeometry relative="1" as="geometry">
            <Array as="points">
              <mxPoint x="720" y="625" />
              <mxPoint x="720" y="145" />
            </Array>
          </mxGeometry>
        </mxCell>
        <mxCell id="hMKmBgIzzNZ2vL4rIoQF-383" style="edgeStyle=orthogonalEdgeStyle;rounded=0;orthogonalLoop=1;jettySize=auto;html=1;exitX=0;exitY=0.5;exitDx=0;exitDy=0;entryX=1;entryY=0.5;entryDx=0;entryDy=0;" parent="1" source="hMKmBgIzzNZ2vL4rIoQF-278" target="hMKmBgIzzNZ2vL4rIoQF-372" edge="1">
          <mxGeometry relative="1" as="geometry">
            <Array as="points">
              <mxPoint x="800" y="175" />
              <mxPoint x="800" y="115" />
            </Array>
          </mxGeometry>
        </mxCell>
        <mxCell id="hMKmBgIzzNZ2vL4rIoQF-392" style="edgeStyle=orthogonalEdgeStyle;rounded=0;orthogonalLoop=1;jettySize=auto;html=1;exitX=0;exitY=0.5;exitDx=0;exitDy=0;entryX=1;entryY=0.5;entryDx=0;entryDy=0;" parent="1" source="hMKmBgIzzNZ2vL4rIoQF-275" target="hMKmBgIzzNZ2vL4rIoQF-388" edge="1">
          <mxGeometry relative="1" as="geometry">
            <Array as="points">
              <mxPoint x="810" y="145" />
              <mxPoint x="810" y="160" />
              <mxPoint x="670" y="160" />
              <mxPoint x="670" y="175" />
            </Array>
          </mxGeometry>
        </mxCell>
        <mxCell id="hMKmBgIzzNZ2vL4rIoQF-393" style="edgeStyle=orthogonalEdgeStyle;rounded=0;orthogonalLoop=1;jettySize=auto;html=1;exitX=1;exitY=0.5;exitDx=0;exitDy=0;entryX=0;entryY=0.5;entryDx=0;entryDy=0;" parent="1" source="hMKmBgIzzNZ2vL4rIoQF-265" target="hMKmBgIzzNZ2vL4rIoQF-388" edge="1">
          <mxGeometry relative="1" as="geometry">
            <Array as="points">
              <mxPoint x="340" y="935" />
              <mxPoint x="340" y="175" />
            </Array>
          </mxGeometry>
        </mxCell>
        <mxCell id="hMKmBgIzzNZ2vL4rIoQF-397" style="edgeStyle=orthogonalEdgeStyle;rounded=0;orthogonalLoop=1;jettySize=auto;html=1;exitX=1;exitY=0.5;exitDx=0;exitDy=0;entryX=0;entryY=0.5;entryDx=0;entryDy=0;" parent="1" source="hMKmBgIzzNZ2vL4rIoQF-245" target="hMKmBgIzzNZ2vL4rIoQF-394" edge="1">
          <mxGeometry relative="1" as="geometry">
            <Array as="points">
              <mxPoint x="290" y="755" />
              <mxPoint x="290" y="205" />
            </Array>
          </mxGeometry>
        </mxCell>
        <mxCell id="hMKmBgIzzNZ2vL4rIoQF-398" style="edgeStyle=orthogonalEdgeStyle;rounded=0;orthogonalLoop=1;jettySize=auto;html=1;exitX=0;exitY=0.5;exitDx=0;exitDy=0;" parent="1" source="hMKmBgIzzNZ2vL4rIoQF-281" target="hMKmBgIzzNZ2vL4rIoQF-394" edge="1">
          <mxGeometry relative="1" as="geometry" />
        </mxCell>
        <mxCell id="hMKmBgIzzNZ2vL4rIoQF-405" style="edgeStyle=orthogonalEdgeStyle;rounded=0;orthogonalLoop=1;jettySize=auto;html=1;exitX=1;exitY=0.5;exitDx=0;exitDy=0;entryX=0;entryY=0.5;entryDx=0;entryDy=0;" parent="1" source="hMKmBgIzzNZ2vL4rIoQF-221" target="hMKmBgIzzNZ2vL4rIoQF-399" edge="1">
          <mxGeometry relative="1" as="geometry">
            <Array as="points">
              <mxPoint x="220" y="515" />
              <mxPoint x="220" y="235" />
            </Array>
          </mxGeometry>
        </mxCell>
        <mxCell id="hMKmBgIzzNZ2vL4rIoQF-406" style="edgeStyle=orthogonalEdgeStyle;rounded=0;orthogonalLoop=1;jettySize=auto;html=1;exitX=0;exitY=0.5;exitDx=0;exitDy=0;entryX=1;entryY=0.5;entryDx=0;entryDy=0;" parent="1" source="hMKmBgIzzNZ2vL4rIoQF-359" target="hMKmBgIzzNZ2vL4rIoQF-399" edge="1">
          <mxGeometry relative="1" as="geometry">
            <Array as="points">
              <mxPoint x="580" y="955" />
              <mxPoint x="580" y="235" />
            </Array>
          </mxGeometry>
        </mxCell>
        <mxCell id="hMKmBgIzzNZ2vL4rIoQF-407" style="edgeStyle=orthogonalEdgeStyle;rounded=0;orthogonalLoop=1;jettySize=auto;html=1;exitX=1;exitY=0.5;exitDx=0;exitDy=0;" parent="1" source="hMKmBgIzzNZ2vL4rIoQF-224" target="hMKmBgIzzNZ2vL4rIoQF-402" edge="1">
          <mxGeometry relative="1" as="geometry">
            <Array as="points">
              <mxPoint x="230" y="545" />
              <mxPoint x="230" y="265" />
            </Array>
          </mxGeometry>
        </mxCell>
        <mxCell id="hMKmBgIzzNZ2vL4rIoQF-408" style="edgeStyle=orthogonalEdgeStyle;rounded=0;orthogonalLoop=1;jettySize=auto;html=1;exitX=0;exitY=0.5;exitDx=0;exitDy=0;entryX=1;entryY=0.5;entryDx=0;entryDy=0;" parent="1" source="hMKmBgIzzNZ2vL4rIoQF-362" target="hMKmBgIzzNZ2vL4rIoQF-402" edge="1">
          <mxGeometry relative="1" as="geometry">
            <Array as="points">
              <mxPoint x="570" y="985" />
              <mxPoint x="570" y="265" />
            </Array>
          </mxGeometry>
        </mxCell>
        <mxCell id="hMKmBgIzzNZ2vL4rIoQF-414" style="edgeStyle=orthogonalEdgeStyle;rounded=0;orthogonalLoop=1;jettySize=auto;html=1;exitX=1;exitY=0.5;exitDx=0;exitDy=0;" parent="1" source="hMKmBgIzzNZ2vL4rIoQF-242" target="hMKmBgIzzNZ2vL4rIoQF-410" edge="1">
          <mxGeometry relative="1" as="geometry">
            <Array as="points">
              <mxPoint x="280" y="725" />
              <mxPoint x="280" y="295" />
            </Array>
          </mxGeometry>
        </mxCell>
        <mxCell id="hMKmBgIzzNZ2vL4rIoQF-415" style="edgeStyle=orthogonalEdgeStyle;rounded=0;orthogonalLoop=1;jettySize=auto;html=1;exitX=0;exitY=0.5;exitDx=0;exitDy=0;" parent="1" source="hMKmBgIzzNZ2vL4rIoQF-365" target="hMKmBgIzzNZ2vL4rIoQF-410" edge="1">
          <mxGeometry relative="1" as="geometry">
            <Array as="points">
              <mxPoint x="560" y="1015" />
              <mxPoint x="560" y="295" />
            </Array>
          </mxGeometry>
        </mxCell>
        <mxCell id="hMKmBgIzzNZ2vL4rIoQF-419" style="edgeStyle=orthogonalEdgeStyle;rounded=0;orthogonalLoop=1;jettySize=auto;html=1;exitX=0;exitY=0.5;exitDx=0;exitDy=0;" parent="1" source="hMKmBgIzzNZ2vL4rIoQF-356" target="hMKmBgIzzNZ2vL4rIoQF-416" edge="1">
          <mxGeometry relative="1" as="geometry">
            <Array as="points">
              <mxPoint x="590" y="925" />
              <mxPoint x="590" y="325" />
            </Array>
          </mxGeometry>
        </mxCell>
        <mxCell id="hMKmBgIzzNZ2vL4rIoQF-420" style="edgeStyle=orthogonalEdgeStyle;rounded=0;orthogonalLoop=1;jettySize=auto;html=1;exitX=1;exitY=0.5;exitDx=0;exitDy=0;" parent="1" source="hMKmBgIzzNZ2vL4rIoQF-239" target="hMKmBgIzzNZ2vL4rIoQF-416" edge="1">
          <mxGeometry relative="1" as="geometry" />
        </mxCell>
        <mxCell id="hMKmBgIzzNZ2vL4rIoQF-424" style="edgeStyle=orthogonalEdgeStyle;rounded=0;orthogonalLoop=1;jettySize=auto;html=1;exitX=0;exitY=0.5;exitDx=0;exitDy=0;" parent="1" source="hMKmBgIzzNZ2vL4rIoQF-296" target="hMKmBgIzzNZ2vL4rIoQF-421" edge="1">
          <mxGeometry relative="1" as="geometry" />
        </mxCell>
        <mxCell id="hMKmBgIzzNZ2vL4rIoQF-425" style="edgeStyle=orthogonalEdgeStyle;rounded=0;orthogonalLoop=1;jettySize=auto;html=1;exitX=1;exitY=0.5;exitDx=0;exitDy=0;" parent="1" source="hMKmBgIzzNZ2vL4rIoQF-236" target="hMKmBgIzzNZ2vL4rIoQF-421" edge="1">
          <mxGeometry relative="1" as="geometry">
            <Array as="points">
              <mxPoint x="270" y="665" />
              <mxPoint x="270" y="355" />
            </Array>
          </mxGeometry>
        </mxCell>
        <mxCell id="hMKmBgIzzNZ2vL4rIoQF-430" style="edgeStyle=orthogonalEdgeStyle;rounded=0;orthogonalLoop=1;jettySize=auto;html=1;exitX=0;exitY=0.5;exitDx=0;exitDy=0;entryX=1;entryY=0.5;entryDx=0;entryDy=0;" parent="1" source="hMKmBgIzzNZ2vL4rIoQF-335" target="hMKmBgIzzNZ2vL4rIoQF-427" edge="1">
          <mxGeometry relative="1" as="geometry" />
        </mxCell>
        <mxCell id="hMKmBgIzzNZ2vL4rIoQF-431" style="edgeStyle=orthogonalEdgeStyle;rounded=0;orthogonalLoop=1;jettySize=auto;html=1;exitX=1;exitY=0.5;exitDx=0;exitDy=0;entryX=0;entryY=0.5;entryDx=0;entryDy=0;" parent="1" source="hMKmBgIzzNZ2vL4rIoQF-84" target="hMKmBgIzzNZ2vL4rIoQF-427" edge="1">
          <mxGeometry relative="1" as="geometry">
            <Array as="points">
              <mxPoint x="110" y="265" />
              <mxPoint x="110" y="385" />
            </Array>
          </mxGeometry>
        </mxCell>
        <mxCell id="hMKmBgIzzNZ2vL4rIoQF-432" style="edgeStyle=orthogonalEdgeStyle;rounded=0;orthogonalLoop=1;jettySize=auto;html=1;exitX=0;exitY=0.5;exitDx=0;exitDy=0;entryX=0;entryY=0.5;entryDx=0;entryDy=0;" parent="1" source="hMKmBgIzzNZ2vL4rIoQF-230" target="hMKmBgIzzNZ2vL4rIoQF-181" edge="1">
          <mxGeometry relative="1" as="geometry" />
        </mxCell>
      </root>
    </mxGraphModel>
  </diagram>
</mxfile>
